<?xml version="1.0" standalone="no"?>
<!DOCTYPE svg PUBLIC "-//W3C//DTD SVG 20010904//EN"
 "http://www.w3.org/TR/2001/REC-SVG-20010904/DTD/svg10.dtd">
<svg version="1.0" xmlns="http://www.w3.org/2000/svg"
 width="800.000000pt" height="798.000000pt" viewBox="0 0 800.000000 798.000000"
 preserveAspectRatio="xMidYMid meet">

<g transform="translate(0.000000,798.000000) scale(0.100000,-0.100000)"
fill="#000000" stroke="none">
<path d="M3630 7841 c0 -10 135 -9 146 2 4 4 -27 7 -69 7 -42 0 -77 -4 -77 -9z"/>
<path d="M3858 7843 c7 -3 16 -2 19 1 4 3 -2 6 -13 5 -11 0 -14 -3 -6 -6z"/>
<path d="M3938 7843 c6 -2 18 -2 25 0 6 3 1 5 -13 5 -14 0 -19 -2 -12 -5z"/>
<path d="M4013 7839 c11 -7 23 -7 35 0 14 9 11 10 -18 10 -29 0 -32 -1 -17
-10z"/>
<path d="M4088 7838 c9 -9 15 -9 24 0 9 9 7 12 -12 12 -19 0 -21 -3 -12 -12z"/>
<path d="M3355 7814 c-210 -39 -581 -132 -635 -159 -76 -39 -185 -85 -217 -91
-20 -4 -80 -25 -132 -46 -53 -22 -123 -50 -156 -63 -164 -64 -359 -175 -440
-250 -22 -21 -69 -58 -105 -83 -188 -133 -503 -428 -641 -602 -100 -125 -179
-229 -179 -235 0 -4 -11 -16 -25 -27 -14 -11 -25 -28 -25 -39 0 -11 -4 -18 -9
-14 -11 6 -53 -49 -44 -59 9 -9 -37 -56 -65 -67 -18 -7 -21 -14 -16 -35 6 -23
4 -25 -14 -20 -17 6 -28 -6 -70 -76 -61 -101 -89 -158 -71 -140 12 11 49 17
49 8 0 -17 -24 -66 -36 -70 -8 -3 -14 -12 -14 -21 0 -28 17 -15 36 27 10 24
40 74 65 113 25 38 52 84 61 100 24 49 148 249 157 255 4 3 14 16 21 30 15 29
115 156 130 165 25 15 3 -22 -82 -141 -112 -157 -206 -312 -305 -500 -88 -170
-116 -237 -202 -489 -51 -147 -113 -516 -113 -660 1 -135 32 -291 61 -310 6
-3 11 -15 11 -25 0 -23 56 -90 76 -90 8 0 14 -7 14 -16 0 -9 13 -32 30 -51 36
-41 39 -58 8 -49 -13 4 -36 9 -53 13 -16 3 -36 15 -43 25 -7 10 -19 18 -25 18
-17 0 -64 55 -88 102 -21 41 -63 269 -55 296 3 9 6 46 7 82 2 64 51 367 64
392 4 7 -1 4 -9 -6 -9 -11 -16 -25 -17 -30 0 -6 -15 -83 -33 -171 l-33 -160
-31 -2 c-30 -1 -32 1 -32 32 0 22 8 41 20 53 13 12 22 35 24 63 2 24 6 51 9
59 12 32 29 121 24 126 -3 3 -8 -8 -12 -25 -4 -17 -13 -31 -21 -31 -8 0 -14
-1 -14 -2 0 -2 -7 -37 -15 -79 -20 -107 -33 -225 -41 -361 -5 -100 -4 -118 9
-118 17 0 27 -29 27 -81 0 -63 28 -137 61 -161 52 -38 95 -158 58 -158 -20 0
-6 -24 49 -78 31 -32 69 -66 84 -76 29 -19 53 -13 44 10 -10 26 22 26 61 0 21
-14 42 -26 47 -26 5 0 17 -7 26 -15 9 -8 41 -23 70 -33 54 -19 78 -42 43 -42
-20 -1 -69 -37 -61 -46 14 -14 253 -66 323 -70 109 -7 112 -9 78 -42 -15 -16
-37 -34 -48 -40 -16 -10 -3 -12 70 -7 207 12 195 8 283 93 88 86 187 228 238
338 47 104 93 261 90 309 -3 30 5 56 30 103 38 70 41 80 19 62 -26 -22 -26 -5
-1 52 24 55 24 56 4 50 -18 -4 -20 -2 -15 29 3 19 24 86 47 149 47 129 59 177
41 166 -6 -4 -11 -2 -11 4 0 7 -14 0 -31 -15 -35 -28 -65 -29 -63 -2 2 13 -3
16 -19 11 -15 -5 -19 -3 -14 10 3 8 2 18 -3 21 -19 12 -22 92 -5 156 9 35 25
105 35 156 21 99 99 270 186 404 24 38 65 101 91 141 51 81 320 360 392 410
42 27 43 30 16 24 -16 -4 -48 -20 -70 -35 -49 -34 -136 -74 -144 -65 -9 9 159
163 203 186 22 11 68 43 104 70 62 49 131 77 192 79 l25 0 -25 11 c-24 9 -24
10 -6 21 11 7 31 23 46 37 14 14 16 17 4 7 -11 -10 -39 -20 -60 -24 -68 -10
-241 -103 -236 -128 4 -19 -27 -32 -38 -15 -6 9 -12 9 -30 0 -12 -6 -24 -10
-26 -7 -9 9 74 86 116 107 25 13 64 39 87 59 22 20 81 54 130 75 48 21 99 49
114 62 14 13 32 24 40 24 8 0 20 5 26 11 6 6 62 13 124 16 101 5 119 3 162
-16 27 -12 60 -21 73 -21 13 0 24 -4 24 -10 0 -11 30 -13 54 -4 9 3 16 14 16
24 0 14 -9 20 -37 22 -39 3 -60 28 -24 28 35 0 23 17 -16 23 -21 4 -42 2 -50
-4 -14 -13 -63 -4 -63 11 0 21 48 33 144 36 63 2 105 -1 113 -8 10 -8 20 -8
37 2 19 10 28 10 47 -1 22 -11 23 -11 11 4 -22 27 -4 37 63 37 45 0 64 4 68
14 13 34 636 -1 842 -47 126 -29 205 -50 345 -95 182 -58 257 -88 292 -117 15
-13 53 -33 83 -44 82 -31 269 -124 278 -138 4 -7 22 -20 40 -29 18 -9 52 -34
77 -54 25 -21 83 -66 130 -100 236 -175 500 -504 662 -824 56 -112 66 -155 33
-142 -12 4 -11 -1 3 -31 17 -36 17 -36 20 -10 3 27 22 39 22 15 0 -7 7 -26 15
-42 19 -36 108 -300 126 -375 12 -48 12 -54 -4 -66 -14 -10 -16 -21 -11 -52 5
-35 3 -41 -15 -46 -17 -4 -21 -1 -21 19 0 28 -15 32 -28 7 -7 -12 -2 -43 14
-97 13 -44 24 -88 24 -98 0 -16 3 -16 20 -6 14 9 20 24 20 50 0 21 5 38 10 38
6 0 10 -6 11 -12 0 -7 4 -34 8 -60 6 -39 5 -51 -9 -63 -23 -21 -33 -19 -27 5
3 13 0 20 -10 20 -12 0 -14 -9 -8 -49 6 -41 3 -53 -13 -69 -16 -16 -18 -29
-14 -78 l5 -59 12 40 c7 26 16 39 26 38 9 -2 15 7 17 25 3 39 22 92 33 92 14
0 11 -26 -6 -40 -8 -7 -15 -17 -15 -22 0 -6 6 -6 14 1 26 21 26 -15 0 -52
l-24 -36 9 -177 c6 -104 6 -187 0 -201 -13 -34 -37 -29 -42 10 -2 17 -5 -31
-6 -108 -2 -185 -16 -311 -42 -380 -11 -31 -18 -59 -15 -62 3 -4 6 1 6 9 0 9
6 21 14 27 20 16 30 -3 16 -29 -8 -16 -8 -20 2 -18 17 4 12 -40 -6 -61 -8 -9
-17 -27 -21 -41 -10 -32 -43 -80 -56 -80 -5 0 -6 12 -3 26 11 45 -12 19 -30
-32 -16 -47 -16 -47 4 -29 19 18 20 17 20 -6 0 -25 -35 -126 -51 -145 -5 -6
-7 -13 -4 -16 3 -3 -6 -29 -19 -59 -25 -58 -119 -165 -135 -155 -5 4 -30 -32
-54 -79 -55 -102 -205 -329 -259 -390 -23 -26 -36 -50 -32 -56 4 -7 3 -9 -3
-6 -5 3 -36 -22 -69 -55 l-59 -61 55 46 c30 26 62 47 70 47 9 0 22 6 29 12 11
11 13 10 9 -2 -2 -8 -21 -26 -42 -39 -31 -21 -36 -29 -31 -52 5 -21 0 -31 -21
-48 -15 -11 -31 -21 -36 -21 -9 0 -27 -7 -103 -40 -31 -14 -39 -17 -54 -19 -5
0 -24 -15 -42 -33 -51 -47 -119 -96 -161 -116 -21 -9 -38 -22 -38 -29 0 -7
-18 -18 -40 -24 -22 -7 -40 -18 -40 -25 0 -15 -50 -44 -75 -44 -8 0 -15 -4
-15 -9 0 -5 -9 -11 -20 -14 -13 -3 -20 0 -20 9 0 8 -8 14 -18 14 -28 0 -34
-11 -14 -26 15 -11 14 -13 -12 -24 -16 -6 -48 -8 -71 -4 -32 4 -50 1 -69 -11
-29 -19 -26 -41 4 -25 24 13 60 13 60 0 0 -6 -8 -13 -17 -16 -10 -3 -49 -20
-88 -37 -54 -24 -83 -31 -127 -30 -36 1 -61 -4 -68 -12 -6 -7 -20 -11 -30 -8
-33 9 -90 -6 -84 -21 4 -11 -8 -15 -48 -16 -29 -1 -67 -3 -84 -4 -20 -1 -30
-5 -27 -13 3 -6 -5 -16 -16 -22 -13 -8 -18 -17 -14 -28 5 -13 3 -15 -13 -8
-14 7 -159 10 -227 6 -18 -2 30 -50 50 -51 29 0 53 -10 53 -22 0 -11 -25 -7
-75 11 -16 6 -42 13 -57 16 -15 3 -34 13 -43 22 -9 9 -29 17 -43 19 -15 1 -65
7 -112 14 -64 9 -93 9 -123 0 -35 -10 -41 -9 -70 13 -43 31 -68 41 -60 21 3
-8 -1 -14 -8 -14 -19 1 -44 21 -52 42 -7 20 -47 44 -47 29 0 -13 53 -75 98
-114 34 -31 41 -47 18 -47 -8 0 -17 -5 -19 -10 -3 -6 -4 -5 -3 2 3 14 -55 58
-76 58 -7 0 -23 12 -36 28 -21 25 -22 25 -17 5 7 -26 3 -28 -28 -12 -22 10
-22 10 -2 -6 11 -9 28 -23 38 -30 11 -7 17 -21 15 -30 -2 -13 -13 -10 -63 20
-52 30 -55 31 -27 8 18 -16 32 -33 32 -40 0 -7 9 -17 20 -23 27 -14 25 -30 -2
-30 -38 1 -111 39 -139 73 -24 29 -27 30 -43 15 -15 -15 -14 -18 11 -37 14
-12 24 -23 22 -25 -2 -3 -27 0 -54 5 -28 6 -67 8 -87 5 -22 -4 -47 0 -65 8
-47 24 -155 54 -175 48 -16 -4 -9 -10 30 -28 45 -21 76 -45 55 -43 -39 4 -110
38 -118 56 -9 22 -65 50 -65 33 0 -5 5 -12 10 -15 6 -3 10 -10 10 -16 0 -10
-95 35 -105 50 -12 20 -96 70 -109 65 -7 -3 -27 6 -44 20 -16 15 -34 26 -39
26 -5 0 -30 14 -56 30 -26 17 -54 30 -61 30 -8 0 -48 18 -90 40 -41 22 -80 40
-87 40 -15 0 -124 68 -145 91 -9 10 -12 19 -6 19 5 0 8 9 5 20 -5 21 11 28 22
10 4 -6 25 -20 47 -33 22 -12 50 -27 61 -34 26 -14 42 -6 26 13 -6 7 -15 11
-20 9 -4 -3 -30 9 -56 28 -26 18 -70 46 -98 62 -63 36 -83 51 -208 156 -104
87 -140 125 -189 198 -15 23 -32 41 -38 41 -18 0 -11 -14 30 -64 46 -55 53
-82 12 -44 -26 25 -59 41 -74 35 -3 -1 -17 8 -31 21 -21 20 -26 21 -36 8 -9
-11 -10 -20 -1 -35 18 -34 -5 -24 -47 22 -74 80 -77 72 -5 -16 82 -101 99
-127 80 -127 -6 0 -23 10 -36 23 -24 21 -24 21 -14 1 17 -32 275 -290 375
-374 48 -40 87 -77 87 -82 0 -4 6 -8 13 -8 7 0 28 -16 47 -35 19 -19 41 -35
51 -35 9 0 37 -18 62 -41 33 -29 52 -39 66 -34 14 4 38 -7 79 -38 33 -24 75
-50 93 -57 19 -8 37 -18 41 -24 3 -5 17 -11 29 -13 22 -3 22 -3 4 17 -10 11
-27 22 -39 26 -41 13 -256 148 -253 158 2 6 -11 28 -29 49 -19 20 -34 44 -34
52 0 13 7 12 40 -5 41 -21 98 -73 157 -143 18 -21 37 -36 42 -32 13 8 3 35
-22 59 -12 12 -16 21 -9 24 17 5 65 -23 110 -67 25 -24 47 -38 56 -35 21 8 76
-27 76 -47 0 -9 7 -22 16 -30 8 -7 21 -24 29 -39 12 -23 11 -28 -9 -47 -17
-16 -26 -19 -41 -11 -15 7 -13 3 5 -12 l24 -21 8 20 c4 12 9 21 12 21 2 0 27
-16 56 -35 60 -41 66 -42 73 -15 4 17 0 20 -28 20 -24 0 -39 7 -54 26 -23 30
-28 59 -8 48 9 -6 9 -4 0 7 -15 15 -17 29 -4 29 4 0 25 -11 45 -25 43 -29 68
-32 64 -9 -6 33 22 25 70 -20 48 -45 128 -81 156 -70 16 6 132 -69 145 -95 17
-30 15 -31 -36 -15 -85 27 -156 45 -160 40 -5 -4 68 -32 108 -40 14 -3 31 -16
37 -28 6 -13 11 -17 11 -10 1 18 46 14 72 -7 18 -14 29 -17 42 -10 23 13 68
-8 84 -41 l13 -25 0 24 c0 21 3 23 33 17 17 -3 50 -7 71 -9 23 -1 41 -8 44
-16 4 -11 -2 -13 -27 -8 -32 7 -39 -1 -19 -21 9 -9 8 -12 -4 -12 -9 0 -23 7
-32 15 -17 17 -36 20 -36 4 0 -17 -124 -2 -255 32 -210 54 -255 69 -255 84 0
8 7 15 15 15 8 0 15 5 15 10 0 15 -27 23 -47 16 -15 -6 -15 -8 -3 -16 8 -5 11
-12 7 -16 -11 -11 -107 14 -176 46 -35 17 -82 33 -104 36 -23 4 -53 15 -67 24
-32 22 -70 42 -70 37 0 -12 232 -137 255 -137 4 0 20 -9 36 -21 16 -11 33 -17
39 -14 14 9 80 -14 80 -27 0 -6 -8 -7 -17 -4 -26 9 26 -31 64 -49 17 -8 38
-15 47 -15 9 0 16 -4 16 -10 0 -5 5 -10 11 -10 6 0 1 12 -10 26 -41 52 -34 52
94 -1 44 -18 87 -36 95 -39 8 -3 39 -20 69 -37 54 -30 74 -32 51 -4 -7 9 -11
18 -8 20 7 7 88 -27 88 -37 0 -5 -4 -6 -10 -3 -5 3 -10 2 -10 -3 0 -6 7 -13
16 -16 22 -8 24 -8 18 7 -4 10 11 14 60 15 62 2 93 -9 61 -22 -22 -8 -18 -26
4 -26 11 0 23 -4 26 -10 3 -5 22 -10 41 -10 19 0 34 -4 34 -10 0 -5 10 -10 22
-10 20 0 20 1 4 19 -10 11 -24 17 -32 14 -22 -8 -64 6 -64 22 0 12 12 14 65
11 70 -5 129 -31 104 -47 -22 -13 -7 -18 43 -12 32 4 45 9 41 17 -4 6 1 5 10
-3 10 -8 27 -11 42 -7 18 5 25 2 25 -9 0 -8 5 -15 10 -15 6 0 10 5 10 11 0 6
13 9 30 7 19 -2 34 3 40 12 8 12 13 11 33 -8 23 -22 47 -29 47 -14 0 5 -11 15
-25 22 -51 27 -29 36 60 23 44 -6 46 -7 29 -20 -17 -13 -16 -14 16 -9 19 4 81
7 136 9 62 1 100 6 98 12 -3 6 15 11 38 12 24 1 57 7 73 14 33 13 47 16 120
22 56 6 85 15 85 28 0 5 19 7 42 6 26 -2 57 4 80 15 20 10 43 18 50 18 7 0 33
10 58 21 25 12 86 31 135 44 50 12 89 27 88 33 -1 5 13 13 32 16 19 4 35 10
35 14 0 4 12 13 28 20 15 6 50 25 77 42 28 17 65 38 83 46 18 8 32 22 32 32 0
14 2 15 10 2 8 -12 11 -12 28 3 10 9 33 20 50 23 33 7 44 24 15 24 -18 0 -12
10 9 13 19 3 149 76 173 97 11 10 39 28 63 40 23 12 45 26 47 31 5 7 91 49
101 49 2 0 4 -4 4 -10 0 -5 -7 -10 -15 -10 -8 0 -15 -4 -15 -8 0 -5 -28 -27
-62 -50 -35 -23 -81 -54 -104 -70 -22 -16 -62 -42 -90 -57 -27 -16 -79 -47
-115 -71 -59 -38 -306 -168 -384 -202 -85 -37 -210 -84 -290 -108 -49 -15
-121 -37 -160 -50 -38 -12 -108 -30 -155 -40 -47 -9 -89 -22 -95 -27 -7 -6 -1
-7 15 -2 14 4 53 9 88 12 34 3 62 9 62 13 0 14 225 64 242 54 4 -3 11 2 14 10
4 10 19 16 41 16 20 0 32 -4 28 -10 -3 -5 -19 -10 -36 -10 -16 0 -29 -4 -29
-9 0 -14 -88 -43 -150 -48 -38 -4 -60 -10 -60 -18 0 -8 -23 -15 -61 -18 -33
-4 -67 -14 -75 -22 -17 -17 -31 -19 -36 -6 -2 5 -24 5 -53 1 -69 -12 -115 -12
-115 0 0 6 10 11 23 11 12 1 15 3 7 5 -8 3 -46 -2 -85 -9 l-70 -14 56 1 c40 0
61 -5 73 -17 32 -32 71 -33 206 -8 97 18 114 22 125 31 5 4 26 8 45 8 42 0
202 39 210 51 3 4 23 10 46 13 23 3 56 13 75 21 49 23 169 67 182 67 24 0 -12
-21 -103 -58 -87 -36 -131 -51 -320 -111 -36 -11 -91 -29 -124 -40 -32 -12
-63 -18 -68 -15 -6 4 -14 1 -18 -7 -7 -10 -12 -10 -23 -1 -11 9 -18 8 -32 -8
-19 -21 -65 -28 -65 -10 0 17 -17 11 -22 -8 -5 -18 -42 -27 -208 -52 -135 -20
-526 -33 -670 -23 -199 14 -261 21 -317 34 -26 6 -57 12 -68 14 -89 13 -147
26 -178 39 -20 8 -58 18 -84 22 -47 7 -172 46 -205 64 -10 6 -26 10 -37 10
-28 0 -211 73 -339 135 -62 30 -116 55 -120 55 -15 0 147 -86 243 -128 134
-59 441 -158 578 -187 39 -8 23 -29 -17 -21 -19 3 -25 2 -16 -3 22 -12 150
-35 157 -27 4 3 -1 6 -10 6 -10 0 -17 5 -17 11 0 7 9 9 23 5 12 -3 89 -13 171
-23 126 -15 150 -20 154 -35 3 -12 14 -18 34 -18 16 0 27 4 23 9 -3 5 -1 12 5
16 6 3 13 -1 16 -9 7 -17 54 -22 54 -6 0 6 5 10 10 10 6 0 10 -7 10 -15 0 -12
30 -14 209 -12 115 1 207 5 205 9 -11 17 107 21 134 4 5 -3 12 1 16 9 4 11 22
15 68 16 82 0 158 13 167 28 5 8 21 8 55 2 54 -10 82 -5 90 15 3 8 19 14 40
14 25 0 38 6 49 24 13 19 27 25 69 28 29 2 64 0 77 -6 19 -8 26 -7 36 8 11 15
22 17 63 11 37 -5 51 -3 61 9 7 8 29 17 50 21 40 7 122 34 106 35 -19 1 77 40
99 40 28 0 46 18 39 39 -4 9 -3 13 1 10 13 -12 111 17 109 32 -2 9 22 22 70
37 101 33 132 48 165 81 26 27 108 71 131 71 5 0 13 5 17 11 4 8 0 9 -15 4
-14 -4 -21 -2 -21 7 0 15 95 52 110 43 6 -3 10 -1 10 5 0 6 17 19 38 28 21 10
37 23 34 30 -2 6 1 12 7 12 6 0 11 -5 11 -11 0 -6 6 -9 13 -6 6 2 11 11 9 19
-3 20 24 42 43 34 12 -4 15 2 15 29 0 32 3 35 29 35 16 0 31 -5 33 -11 5 -14
38 0 38 17 0 8 -6 11 -15 8 -25 -10 -17 14 10 32 27 18 50 10 25 -7 -12 -9
-11 -10 3 -5 11 3 30 9 43 12 15 4 24 13 24 25 0 10 7 19 15 19 8 0 28 13 44
29 29 29 68 48 77 38 3 -2 -19 -23 -48 -46 -29 -23 -66 -54 -83 -69 -16 -16
-52 -46 -80 -68 -27 -21 -54 -45 -58 -51 -4 -7 -13 -13 -19 -13 -7 0 -21 -9
-32 -19 -12 -11 -43 -31 -71 -46 -27 -15 -61 -38 -76 -51 -14 -13 -28 -24 -32
-24 -4 0 -25 -13 -47 -29 -22 -16 -56 -32 -75 -35 -19 -4 -35 -13 -35 -19 0
-15 -91 -67 -116 -67 -8 0 -29 -13 -46 -30 -16 -16 -38 -30 -47 -30 -10 0 -29
-9 -43 -19 -13 -11 -38 -23 -54 -27 -16 -3 -45 -17 -64 -29 -19 -13 -65 -33
-102 -45 -38 -13 -68 -27 -68 -31 0 -5 -6 -9 -13 -9 -7 0 -31 -9 -52 -21 -22
-11 -74 -31 -115 -44 -75 -23 -124 -40 -235 -81 -33 -12 -76 -25 -95 -29 -64
-12 -112 -26 -107 -31 9 -9 186 38 327 87 262 93 630 257 769 343 20 12 68 40
106 60 154 84 423 276 574 411 307 276 516 511 649 732 30 48 72 117 94 153
47 75 141 268 168 344 35 101 61 171 70 191 4 11 11 31 14 45 2 14 19 63 35
110 39 106 102 333 130 465 42 198 52 317 52 588 -1 575 -65 899 -291 1472
-60 154 -184 403 -238 479 -23 33 -42 65 -42 71 0 7 -24 46 -54 86 -29 41 -63
93 -75 117 -12 24 -34 57 -49 73 -15 16 -49 59 -77 95 -27 36 -106 123 -175
193 -69 70 -154 159 -190 197 -79 84 -214 205 -278 248 -62 43 -313 198 -433
269 -84 50 -206 110 -415 207 -127 59 -596 203 -704 216 -30 4 -66 11 -80 16
-14 5 -61 14 -105 19 -44 6 -114 15 -155 20 -148 21 -622 9 -805 -21 -33 -5
-132 -19 -219 -30 -98 -12 -166 -26 -175 -35 -18 -16 -121 -32 -121 -19 1 14
30 49 30 36 0 -13 47 -6 64 9 6 5 22 9 37 9 38 0 59 10 59 26 0 16 17 19 22 4
3 -11 93 13 114 31 7 6 33 12 58 14 24 1 50 6 58 11 7 5 21 7 31 6 10 -2 24 1
31 8 8 6 27 10 42 10 16 -1 70 8 119 18 130 29 43 25 -120 -4z m656 -160 c63
-14 69 -18 69 -41 0 -23 -3 -25 -32 -19 -55 11 -216 24 -325 25 -43 1 -54 5
-64 22 -7 13 -7 19 -1 15 6 -3 13 -2 17 4 10 16 256 12 336 -6z m-832 -3 c16
-10 -20 -22 -118 -41 -73 -14 -242 -60 -266 -73 -11 -6 -81 -34 -155 -63 -203
-78 -271 -107 -437 -190 -146 -72 -466 -276 -577 -367 -241 -196 -557 -541
-673 -732 -20 -33 -59 -84 -85 -114 -27 -30 -60 -75 -72 -100 -13 -25 -41 -71
-61 -101 -41 -61 -169 -319 -180 -363 -4 -15 -11 -30 -17 -33 -13 -8 -1 35 44
159 54 147 126 280 239 443 16 23 33 53 38 67 5 14 23 40 39 58 16 19 37 50
47 69 10 19 31 51 47 70 28 33 88 113 151 201 57 80 314 333 422 417 60 47
117 93 125 103 24 27 91 69 112 69 10 0 21 7 24 15 8 20 101 78 114 70 5 -3
21 5 35 19 14 15 30 26 34 26 15 0 244 122 285 152 22 15 48 28 57 28 9 0 22
7 29 15 7 8 18 15 24 15 6 0 39 13 72 30 121 59 262 99 454 130 74 12 137 23
139 26 8 8 96 4 110 -5z m1116 -31 c39 -5 99 -19 135 -30 36 -12 108 -27 160
-34 140 -20 190 -48 190 -108 0 -17 -51 -2 -145 42 -81 39 -88 41 -105 25 -17
-15 -22 -15 -64 -1 -26 9 -55 16 -65 16 -10 0 -44 11 -76 25 -31 14 -78 26
-103 27 -48 2 -122 32 -122 50 0 9 53 6 195 -12z m-608 -67 c-3 -4 113 -9 256
-9 265 -1 299 -5 507 -50 41 -9 80 -20 87 -26 6 -5 42 -14 80 -19 37 -5 93
-18 123 -28 30 -10 86 -28 123 -40 37 -12 97 -40 133 -62 36 -23 91 -50 123
-59 32 -10 75 -30 96 -44 21 -14 46 -26 56 -26 20 0 109 -51 109 -62 0 -4 -15
1 -32 12 -18 10 -51 22 -73 25 -22 4 -51 15 -65 24 -48 34 -93 53 -179 75 -47
13 -105 33 -128 44 -23 12 -49 22 -58 22 -9 0 -34 9 -56 20 -22 11 -56 21 -77
22 -20 0 -51 9 -68 19 -18 11 -39 17 -47 13 -9 -3 -29 1 -44 9 -39 22 -153 48
-253 58 -47 5 -103 11 -125 13 -215 22 -530 27 -715 12 -90 -7 -253 -25 -303
-32 -29 -5 -39 -3 -32 4 13 14 289 71 385 80 128 12 182 13 177 5z m1121 -61
c2 -7 -3 -12 -12 -12 -9 0 -16 7 -16 16 0 17 22 14 28 -4z m40 -32 c2 -13 15
-32 28 -43 29 -22 25 -34 -5 -18 -21 12 -51 60 -51 81 0 21 25 4 28 -20z
m-1167 -42 c11 -20 10 -21 -36 -15 -56 8 -72 16 -54 28 27 17 78 10 90 -13z
m69 12 c0 -5 -11 -10 -25 -10 -14 0 -25 5 -25 10 0 6 11 10 25 10 14 0 25 -4
25 -10z m68 -6 c-9 -9 -21 -13 -27 -10 -20 13 -11 26 16 26 25 0 26 -1 11 -16z
m-780 -8 c9 -9 0 -13 -46 -19 -28 -3 -40 -2 -36 5 5 7 -4 9 -24 6 -26 -4 -29
-2 -20 9 8 10 27 13 66 9 29 -2 56 -7 60 -10z m62 10 c0 -3 -4 -8 -10 -11 -5
-3 -10 -1 -10 4 0 6 5 11 10 11 6 0 10 -2 10 -4z m408 -16 c1 -9 -5 -16 -15
-17 -10 -1 -52 -3 -93 -6 -41 -2 -115 -8 -165 -12 -127 -11 -99 6 53 31 148
25 215 26 220 4z m442 0 c22 -22 65 -27 75 -9 9 13 125 4 258 -22 54 -10 109
-19 122 -19 13 0 31 -7 39 -16 9 -8 24 -13 33 -10 16 5 413 -121 452 -144 14
-8 14 -9 -2 -10 -10 0 -27 4 -37 10 -10 5 -38 12 -61 15 -52 6 -112 19 -154
33 -44 15 -164 42 -205 46 -31 3 -113 32 -163 58 -14 7 -24 5 -36 -6 -15 -13
-23 -14 -52 -5 -19 7 -46 21 -61 31 -27 19 -28 19 -57 -3 -23 -17 -38 -20 -77
-16 -27 2 -59 8 -71 12 -18 6 -23 3 -23 -9 0 -19 -55 -23 -66 -5 -4 8 -9 7
-14 -2 -7 -10 -16 -10 -51 0 -30 9 -65 10 -123 4 -45 -4 -89 -8 -98 -7 -10 0
-18 -3 -18 -7 0 -4 -44 -8 -98 -7 -57 0 -108 -5 -120 -11 -17 -9 -26 -8 -42 1
-37 23 -18 39 38 30 21 -3 38 1 50 11 10 9 26 16 37 16 11 0 38 4 60 10 29 8
48 7 68 -1 17 -7 31 -7 35 -2 4 5 25 9 47 10 194 0 288 6 263 16 -16 5 -28 14
-28 19 0 17 60 9 80 -11z m1055 -10 c3 -5 23 -10 44 -10 22 0 44 -6 51 -15 7
-9 15 -13 18 -11 6 7 42 -13 42 -23 0 -19 -31 -19 -82 0 -29 12 -69 26 -88 32
-45 14 -47 16 -30 27 20 13 37 12 45 0z m-2505 -24 c0 -9 -66 -45 -95 -52 -42
-10 -24 6 38 33 59 25 57 25 57 19z m433 -3 c-7 -2 -19 -2 -25 0 -7 3 -2 5 12
5 14 0 19 -2 13 -5z m-93 -7 c0 -2 -7 -6 -15 -10 -8 -3 -15 -1 -15 4 0 6 7 10
15 10 8 0 15 -2 15 -4z m275 -6 c3 -5 3 -10 -2 -10 -4 0 -19 -3 -33 -6 -24 -5
-24 -5 -6 10 23 19 32 20 41 6z m-337 -43 c4 -30 0 -33 -71 -41 -30 -4 -46 -2
-42 4 7 12 -1 12 -34 3 -23 -6 -23 -7 -5 -13 15 -6 8 -12 -38 -34 -32 -15 -68
-28 -80 -29 -13 0 -29 -9 -36 -19 -8 -11 -26 -18 -46 -18 -18 0 -36 -3 -40 -7
-4 -5 -11 -8 -14 -8 -22 -2 -132 -60 -132 -70 0 -16 -155 -105 -182 -105 -10
0 -46 -23 -79 -50 -33 -28 -82 -61 -107 -74 -26 -14 -65 -43 -87 -65 -21 -23
-42 -41 -46 -41 -18 0 -129 -82 -129 -95 0 -8 -12 -22 -27 -32 -39 -24 -133
-122 -133 -140 0 -8 -13 -19 -30 -24 -16 -6 -30 -17 -30 -25 0 -8 -25 -41 -56
-72 -30 -31 -78 -91 -106 -132 -28 -41 -62 -88 -75 -105 -98 -122 -196 -294
-336 -585 -52 -110 -72 -123 -37 -24 11 32 20 66 20 76 0 10 11 40 24 66 13
26 27 61 30 79 4 17 20 49 35 71 16 21 32 49 36 63 4 13 13 31 19 39 7 8 25
38 41 65 74 132 250 373 361 495 192 211 471 440 644 528 41 21 109 63 150 92
41 30 102 64 135 77 33 13 114 51 180 84 118 59 246 100 295 96 19 -1 26 -8
28 -30z m2475 3 c19 -11 41 -18 50 -14 25 9 236 -119 237 -143 0 -18 -2 -18
-85 35 -114 70 -117 72 -156 72 -25 0 -43 8 -62 28 -43 45 -37 53 16 22z
m-1993 -15 c0 -19 -8 -22 -83 -29 -52 -6 -58 -4 -55 11 2 14 14 19 47 20 24 2
47 5 49 8 12 11 42 4 42 -10z m-153 -41 c-3 -3 -12 -4 -19 -1 -8 3 -5 6 6 6
11 1 17 -2 13 -5z m-112 -34 c-3 -5 -10 -10 -16 -10 -5 0 -9 5 -9 10 0 6 7 10
16 10 8 0 12 -4 9 -10z m-40 -10 c-3 -5 -19 -10 -36 -10 -16 0 -29 5 -29 10 0
6 16 10 36 10 21 0 33 -4 29 -10z m-1109 -31 c-13 -10 -30 -19 -38 -19 -7 0 0
11 17 24 16 13 34 22 38 19 4 -2 -3 -13 -17 -24z m264 -14 c0 -8 -82 -47 -87
-41 -3 2 12 14 34 25 39 20 53 25 53 16z m540 -12 c-1 -9 -180 -94 -245 -116
-22 -8 -77 -38 -121 -66 -45 -28 -90 -51 -101 -51 -11 0 -25 -6 -31 -13 -6 -7
-44 -30 -84 -50 -40 -20 -107 -64 -148 -98 -41 -34 -106 -83 -145 -109 -68
-46 -105 -79 -102 -90 1 -3 -54 -62 -122 -130 -68 -69 -122 -120 -120 -113 15
45 286 333 397 421 109 86 356 236 507 309 49 24 111 55 136 68 65 35 180 59
179 38z m2938 -19 c33 -23 27 -37 -8 -19 -16 9 -30 20 -30 25 0 14 12 12 38
-6z m-3868 -34 c0 -5 -5 -10 -11 -10 -5 0 -7 5 -4 10 3 6 8 10 11 10 2 0 4 -4
4 -10z m2505 -11 c16 -16 -30 -10 -51 7 -18 15 -18 15 11 9 17 -4 34 -11 40
-16z m72 -35 c-6 -6 -47 9 -47 17 0 5 11 3 25 -3 14 -6 24 -13 22 -14z m-2637
2 c0 -2 -12 -11 -27 -20 l-28 -17 24 20 c23 21 31 25 31 17z m3704 -51 c88
-50 92 -53 84 -60 -3 -3 -32 9 -64 28 -33 19 -70 37 -84 40 -14 3 -34 13 -45
21 -20 15 -19 15 5 16 14 0 61 -20 104 -45z m-3555 -38 c-2 -1 -13 -9 -24 -17
-19 -14 -19 -14 -6 3 7 9 18 17 24 17 6 0 8 -1 6 -3z m1866 -7 c3 -5 -1 -10
-10 -10 -9 0 -13 5 -10 10 3 6 8 10 10 10 2 0 7 -4 10 -10z m195 -20 c27 -17
0 -24 -33 -7 -30 15 -31 16 -7 16 14 0 32 -3 40 -9z m-2130 -25 c-7 -8 -18
-15 -24 -15 -6 0 -2 7 8 15 25 19 32 19 16 0z m3806 -11 c22 -9 46 -23 56 -31
9 -8 23 -15 30 -17 16 -2 163 -110 173 -126 3 -6 -1 -10 -9 -10 -8 0 -17 4
-21 9 -3 6 -56 42 -118 81 -162 101 -193 128 -111 94z m-1208 -40 c24 -7 31
-24 9 -24 -15 0 -57 29 -42 30 6 0 20 -3 33 -6z m105 -41 c20 -16 36 -31 37
-35 1 -24 -93 19 -98 45 -5 25 19 21 61 -10z m207 -18 c13 -14 31 -25 40 -24
30 3 40 -1 40 -17 0 -14 -2 -15 -16 -3 -15 12 -16 11 -10 -9 10 -30 -4 -28
-30 6 -18 21 -25 24 -35 15 -10 -10 -10 -15 1 -27 21 -27 -15 -31 -50 -6 -29
21 -39 40 -21 40 5 0 7 10 4 21 -5 18 -3 20 16 14 12 -4 21 -2 21 4 0 18 15
12 40 -14z m1469 -40 c113 -77 500 -471 529 -538 7 -17 36 -56 65 -87 58 -63
143 -170 139 -176 -4 -7 51 -108 104 -189 49 -75 104 -185 104 -208 0 -6 -11
0 -25 13 -14 13 -25 31 -25 40 0 9 -8 24 -18 33 -10 9 -28 37 -40 61 -12 24
-45 74 -72 112 -27 37 -62 95 -76 129 -18 41 -36 67 -56 78 -17 10 -32 26 -35
37 -3 11 -11 20 -18 20 -8 0 -17 10 -21 23 -3 12 -13 30 -21 39 -8 9 -12 22
-8 28 4 6 -28 49 -74 100 -45 48 -81 93 -81 99 0 6 -17 22 -38 35 -21 13 -65
52 -98 86 -32 34 -72 74 -89 88 -16 15 -70 66 -120 114 -49 48 -99 95 -110
104 -42 33 16 5 84 -41z m-4625 -57 c-145 -152 -322 -328 -328 -328 -18 0 95
128 215 243 74 71 143 137 153 148 11 10 24 19 30 19 5 0 -26 -37 -70 -82z
m3342 17 c19 -8 47 -24 61 -35 14 -11 33 -20 43 -20 19 0 67 -47 57 -56 -16
-16 -82 10 -119 47 -44 45 -48 46 -41 19 11 -41 -74 -13 -98 32 -10 18 -8 19
21 13 23 -5 30 -4 26 4 -10 15 8 14 50 -4z m1029 -45 c3 -5 1 -10 -4 -10 -6 0
-11 5 -11 10 0 6 2 10 4 10 3 0 8 -4 11 -10z m-819 -85 c16 -12 16 -14 3 -15
-9 0 -22 7 -29 15 -16 19 0 19 26 0z m124 -26 c0 -6 -7 -8 -16 -5 -9 3 -18 6
-20 6 -2 0 -4 7 -4 15 0 13 4 14 20 5 11 -6 20 -16 20 -21z m60 -33 c0 -7 11
-23 25 -36 39 -36 19 -42 -30 -9 -50 34 -57 53 -20 55 14 1 25 -4 25 -10z
m-4150 -16 c0 -5 -5 -10 -11 -10 -5 0 -7 5 -4 10 3 6 8 10 11 10 2 0 4 -4 4
-10z m-25 -30 c-3 -5 -10 -10 -16 -10 -5 0 -9 5 -9 10 0 6 7 10 16 10 8 0 12
-4 9 -10z m4485 -127 c34 -20 71 -49 83 -65 13 -18 23 -24 28 -17 4 7 13 1 25
-16 11 -14 30 -39 42 -56 41 -50 19 -51 -23 0 -33 40 -42 45 -51 33 -11 -16
-39 -7 -29 9 3 5 0 6 -8 3 -8 -3 -25 8 -41 26 -14 17 -31 28 -36 25 -12 -8
-80 62 -80 82 0 22 25 15 90 -24z m-3260 -102 c0 -11 -99 -75 -106 -69 -5 6
85 78 98 78 4 0 8 -4 8 -9z m3568 -119 c69 -60 119 -119 108 -129 -3 -4 -13 3
-22 15 -8 12 -22 22 -30 22 -8 0 -14 6 -14 13 0 6 -17 31 -38 54 -29 32 -41
40 -50 31 -8 -8 -14 -5 -21 14 -5 15 -15 29 -20 33 -6 3 -11 11 -11 17 0 12
11 5 98 -70z m-4883 -60 c-20 -38 -49 -84 -66 -103 l-31 -34 23 40 c32 58 101
165 106 165 2 0 -12 -31 -32 -68z m1020 -7 c-33 -29 -62 -52 -64 -50 -5 6 108
104 119 104 3 0 -22 -24 -55 -54z m-783 13 c-7 -7 -12 -8 -12 -2 0 14 12 26
19 19 2 -3 -1 -11 -7 -17z m2 -39 c-3 -5 -12 -9 -20 -9 -7 0 -28 -25 -46 -55
-18 -31 -43 -72 -55 -93 -12 -20 -38 -67 -57 -103 -32 -62 -66 -103 -66 -82 0
14 63 134 95 180 14 21 25 42 25 47 0 10 78 117 93 128 14 8 38 -2 31 -13z
m4896 -32 c0 -6 -9 -2 -20 8 -11 10 -20 23 -20 28 0 6 9 2 20 -8 11 -10 20
-23 20 -28z m-99 -44 c17 -28 33 -83 25 -83 -7 0 -56 87 -56 99 0 20 15 11 31
-16z m439 -24 c0 -6 -4 -7 -10 -4 -5 3 -10 11 -10 16 0 6 5 7 10 4 6 -3 10
-11 10 -16z m-4673 -111 c-45 -68 -92 -143 -105 -168 -12 -25 -38 -70 -57
-100 -19 -30 -53 -98 -76 -150 -71 -168 -82 -189 -95 -194 -8 -3 -14 -14 -14
-25 0 -26 -41 -111 -53 -111 -5 0 -7 15 -4 33 5 35 62 194 76 211 5 6 14 28
20 48 7 20 19 42 27 48 7 7 14 21 14 32 0 32 73 158 91 158 11 0 20 14 28 44
6 24 18 49 27 56 8 8 25 32 36 54 15 31 153 186 165 186 1 0 -35 -55 -80 -122z
m-1175 49 c-6 -12 -13 -30 -16 -39 -3 -10 -12 -18 -21 -18 -19 0 -19 14 0 30
8 7 15 20 15 29 0 22 23 46 29 30 2 -6 -1 -21 -7 -32z m5573 -110 l17 -29 -28
4 c-18 2 -29 9 -29 18 0 8 -5 20 -11 25 -6 6 -25 37 -43 70 l-33 60 56 -60
c30 -33 62 -73 71 -88z m138 -21 c11 -20 17 -39 14 -42 -6 -6 -57 65 -57 79 0
20 25 -2 43 -37z m327 -76 c28 -55 43 -110 18 -65 -6 11 -19 29 -28 40 -16 18
-35 85 -25 85 3 0 18 -27 35 -60z m-402 21 c3 -8 -1 -12 -9 -9 -7 2 -15 10
-17 17 -3 8 1 12 9 9 7 -2 15 -10 17 -17z m121 -27 c3 -16 1 -17 -13 -5 -19
16 -21 34 -3 29 6 -3 14 -13 16 -24z m-73 -29 c19 -25 25 -42 20 -60 -7 -27
-26 -34 -26 -10 0 9 -10 29 -21 45 -12 16 -19 36 -16 44 9 22 12 21 43 -19z
m624 -45 c0 -5 -2 -10 -4 -10 -3 0 -8 5 -11 10 -3 6 -1 10 4 10 6 0 11 -4 11
-10z m-283 -47 c26 -34 43 -72 34 -77 -5 -3 -18 9 -28 27 -24 40 -34 67 -26
67 3 0 12 -8 20 -17z m425 -45 c39 -82 62 -148 53 -156 -4 -4 -10 -1 -12 6 -3
6 -10 12 -18 12 -8 0 -12 13 -11 39 1 44 -10 63 -24 41 -13 -21 -19 -10 -26
53 -9 72 5 74 38 5z m-707 -28 c0 -20 -3 -25 -11 -19 -6 5 -9 21 -6 34 6 33
17 22 17 -15z m-5601 -5 c-4 -8 -8 -15 -10 -15 -2 0 -4 7 -4 15 0 8 4 15 10
15 5 0 7 -7 4 -15z m466 -9 c0 -3 -4 -8 -10 -11 -5 -3 -10 -1 -10 4 0 6 5 11
10 11 6 0 10 -2 10 -4z m-362 -13 c-2 -5 -17 -35 -33 -68 -18 -37 -30 -54 -32
-43 -5 20 43 118 58 118 6 0 9 -3 7 -7z m5842 -22 c0 -11 -4 -22 -9 -25 -11
-7 -20 14 -13 32 7 19 22 14 22 -7z m-5979 -34 c-8 -8 -11 -7 -11 4 0 20 13
34 18 19 3 -7 -1 -17 -7 -23z m5744 -93 c19 -45 19 -64 1 -64 -8 0 -16 14 -18
33 -3 17 -8 40 -13 50 -4 10 -3 17 4 17 6 0 18 -16 26 -36z m320 -65 c9 -39
-1 -50 -15 -15 -12 34 -13 46 -1 46 5 0 12 -14 16 -31z m65 21 c0 -5 -4 -10
-10 -10 -5 0 -10 5 -10 10 0 6 5 10 10 10 6 0 10 -4 10 -10z m90 -77 c0 -24
-25 -9 -28 17 -3 21 -2 22 12 11 9 -7 16 -20 16 -28z m-400 -48 c0 -8 -4 -15
-9 -15 -13 0 -22 16 -14 24 11 11 23 6 23 -9z m280 -6 c0 -11 -4 -17 -10 -14
-5 3 -10 13 -10 21 0 8 5 14 10 14 6 0 10 -9 10 -21z m-6383 -11 c-3 -8 -6 -5
-6 6 -1 11 2 17 5 13 3 -3 4 -12 1 -19z m6907 -93 c39 -109 44 -131 20 -100
-24 32 -81 225 -60 204 3 -2 21 -49 40 -104z m-6925 27 c-5 -24 -13 -115 -18
-202 -4 -88 -11 -163 -15 -168 -4 -4 -14 1 -21 11 -18 25 -8 167 16 230 11 26
19 63 19 81 0 32 19 101 26 94 1 -2 -1 -23 -7 -46z m6155 -23 c1 -68 -19 -77
-28 -11 -3 27 -3 57 0 66 12 30 26 1 28 -55z m303 -49 c18 -55 27 -130 15
-130 -12 0 -15 10 -33 95 -7 33 -16 64 -21 70 -4 5 -8 18 -8 28 0 18 2 17 18
-4 10 -13 23 -40 29 -59z m-5487 60 c0 -5 -5 -10 -11 -10 -5 0 -7 5 -4 10 3 6
8 10 11 10 2 0 4 -4 4 -10z m5905 -120 c19 -36 19 -60 1 -60 -16 0 -34 46 -28
73 5 24 9 22 27 -13z m-235 -25 c0 -8 -2 -15 -4 -15 -2 0 -6 7 -10 15 -3 8 -1
15 4 15 6 0 10 -7 10 -15z m-414 -59 c-3 -14 -1 -28 5 -31 6 -4 8 -14 4 -23
-3 -8 0 -19 7 -24 10 -6 7 -10 -9 -14 -13 -4 -23 -10 -23 -15 0 -5 -5 -9 -11
-9 -11 0 -3 76 12 118 11 30 23 28 15 -2z m697 -75 c6 -29 5 -47 -2 -54 -16
-16 -20 -7 -25 52 -6 65 14 66 27 2z m-283 -12 c6 -22 14 -47 17 -55 3 -8 -1
-14 -10 -14 -17 0 -27 29 -27 78 0 43 7 40 20 -9z m-6733 -31 c-3 -8 -6 -5 -6
6 -1 11 2 17 5 13 3 -3 4 -12 1 -19z m6376 -92 c1 -24 -3 -41 -10 -43 -19 -7
-28 27 -14 50 9 14 10 22 2 30 -13 13 -15 60 -3 71 8 9 23 -53 25 -108z m268
82 c-11 -30 -41 -37 -41 -10 0 20 12 30 37 31 9 1 10 -6 4 -21z m154 -48 c3
-5 1 -10 -4 -10 -6 0 -11 5 -11 10 0 6 2 10 4 10 3 0 8 -4 11 -10z m-583 -105
c0 -5 -5 -11 -11 -13 -6 -2 -11 4 -11 13 0 9 5 15 11 13 6 -2 11 -8 11 -13z
m176 -3 c2 -7 -4 -15 -13 -18 -20 -8 -27 -1 -19 20 7 18 25 17 32 -2z m-168
-32 c0 -5 -5 -10 -11 -10 -5 0 -7 5 -4 10 3 6 8 10 11 10 2 0 4 -4 4 -10z
m537 -21 c2 -17 -1 -18 -13 -9 -17 15 -18 30 -1 30 7 0 13 -9 14 -21z m-6907
-36 c0 -28 -3 -34 -10 -23 -13 20 -13 60 0 60 6 0 10 -17 10 -37z m6416 23 c3
-8 1 -23 -5 -33 -9 -16 -10 -16 -11 -1 0 9 -3 23 -6 32 -3 9 -1 16 5 16 7 0
14 -6 17 -14z m444 -42 c0 -24 -4 -44 -9 -44 -9 0 -21 79 -14 93 10 19 23 -8
23 -49z m-300 -71 c0 -20 -3 -24 -11 -16 -7 7 -9 19 -6 27 10 24 17 19 17 -11z
m300 -9 c0 -8 -5 -12 -10 -9 -6 4 -8 11 -5 16 9 14 15 11 15 -7z m-420 -35 c0
-16 -4 -28 -9 -25 -8 5 -3 56 5 56 2 0 4 -14 4 -31z m780 11 c0 -11 -4 -20
-10 -20 -5 0 -10 9 -10 20 0 11 5 20 10 20 6 0 10 -9 10 -20z m-340 -81 c0 -5
-4 -9 -10 -9 -5 0 -10 7 -10 16 0 8 5 12 10 9 6 -3 10 -10 10 -16z m360 -41
c0 -23 -3 -29 -11 -21 -6 6 -8 20 -4 32 9 30 15 26 15 -11z m-642 -26 c-5 -27
-28 -26 -28 2 0 19 4 24 15 19 9 -3 15 -12 13 -21z m289 5 c-2 -7 0 -20 5 -30
11 -22 2 -70 -12 -62 -6 3 -10 31 -10 61 0 36 4 53 11 49 5 -4 8 -12 6 -18z
m-424 -40 c2 -36 0 -46 -10 -43 -7 3 -15 0 -19 -5 -10 -16 -26 5 -18 24 3 9
10 14 15 11 5 -3 9 8 9 24 0 26 9 47 16 39 2 -2 5 -24 7 -50z m174 13 c-10
-27 -34 -47 -44 -37 -7 8 32 67 44 67 8 0 8 -7 0 -30z m340 -87 c-3 -10 -5 -2
-5 17 0 19 2 27 5 18 2 -10 2 -26 0 -35z m-355 -7 c-2 -18 1 -37 7 -40 8 -5 8
-13 1 -27 -14 -26 -33 -25 -25 2 6 18 4 20 -14 14 -20 -6 -20 -5 -5 32 20 48
23 53 33 53 4 0 5 -15 3 -34z m632 7 c-7 -31 -21 -50 -29 -41 -8 7 15 68 26
68 5 0 6 -12 3 -27z m-814 -47 c0 -48 -11 -64 -28 -43 -7 8 -7 18 -2 27 6 8
10 25 10 38 0 12 5 22 10 22 6 0 10 -20 10 -44z m40 6 c0 -13 -12 -22 -22 -16
-10 6 -1 24 13 24 5 0 9 -4 9 -8z m405 -49 c-9 -39 -22 -49 -20 -16 3 40 4 43
16 43 7 0 9 -10 4 -27z m-405 -43 c0 -5 -5 -10 -11 -10 -5 0 -7 5 -4 10 3 6 8
10 11 10 2 0 4 -4 4 -10z m142 -12 c-7 -7 -12 -8 -12 -2 0 14 12 26 19 19 2
-3 -1 -11 -7 -17z m-6426 -33 c24 -25 44 -48 44 -51 0 -10 -56 10 -82 30 -27
19 -36 45 -21 59 10 11 12 9 59 -38z m6241 3 c-3 -8 -6 -5 -6 6 -1 11 2 17 5
13 3 -3 4 -12 1 -19z m811 -24 c-7 -15 -19 -29 -25 -32 -15 -4 4 59 21 70 17
11 19 -8 4 -38z m-632 0 c-3 -9 -6 -18 -6 -20 0 -2 -4 -4 -9 -4 -5 0 -7 9 -4
20 3 11 10 20 15 20 6 0 7 -7 4 -16z m-185 -47 c-8 -8 -11 -4 -11 14 0 33 14
47 18 19 2 -12 -1 -27 -7 -33z m619 33 c0 -11 -4 -20 -9 -20 -5 0 -7 9 -4 20
3 11 7 20 9 20 2 0 4 -9 4 -20z m-574 -76 c-3 -8 -10 -14 -16 -14 -14 0 -13
27 2 53 l13 22 3 -23 c2 -13 1 -30 -2 -38z m785 -1 c-3 -44 -20 -72 -45 -73
-14 0 3 92 21 112 22 25 28 16 24 -39z m-647 -25 c-1 -29 -7 -65 -13 -80 -13
-36 -36 -38 -27 -3 4 14 9 46 12 72 3 26 8 51 10 55 13 20 19 3 18 -44z m441
42 c6 -9 -24 -64 -31 -57 -2 2 -1 18 2 35 7 32 18 40 29 22z m-585 -74 c0 -24
-16 -43 -26 -33 -8 7 7 57 17 57 5 0 9 -11 9 -24z m-92 1 c7 -8 7 -40 1 -97
-13 -124 -18 -150 -32 -150 -14 0 -7 118 12 185 13 50 13 58 1 50 -5 -3 -10 1
-10 9 0 19 14 21 28 3z m661 -98 c-6 -16 -16 -29 -21 -29 -13 0 -2 98 13 117
12 14 14 12 17 -22 2 -20 -2 -50 -9 -66z m187 3 c-14 -14 -28 -23 -32 -19 -9
9 16 69 36 84 12 10 16 7 18 -14 3 -18 -5 -34 -22 -51z m-606 4 c0 -19 -49
-76 -50 -58 0 18 32 72 42 72 4 0 8 -6 8 -14z m630 -25 c0 -23 -14 -41 -31
-41 -21 0 -25 20 -7 38 14 14 38 16 38 3z m-215 -78 c-11 -90 -24 -108 -24
-36 -1 66 5 93 21 93 7 0 8 -21 3 -57z m-611 2 c-4 -8 -8 -15 -10 -15 -2 0 -4
7 -4 15 0 8 4 15 10 15 5 0 7 -7 4 -15z m156 -2 c0 -5 -5 -15 -10 -23 -8 -12
-10 -11 -10 8 0 12 5 22 10 22 6 0 10 -3 10 -7z m641 -52 c-6 -11 -11 -28 -11
-39 0 -10 -11 -29 -25 -42 -28 -27 -29 -24 -12 42 13 49 27 72 28 47 0 -8 5
-3 11 11 6 14 12 20 15 13 2 -7 0 -21 -6 -32z m-91 0 c0 -10 -7 -24 -15 -31
-13 -11 -15 -8 -15 19 0 21 5 31 15 31 8 0 15 -8 15 -19z m-680 -28 c0 -5 -5
-15 -10 -23 -8 -12 -10 -11 -10 8 0 12 5 22 10 22 6 0 10 -3 10 -7z m-30 -18
c0 -8 -4 -15 -10 -15 -5 0 -10 7 -10 15 0 8 5 15 10 15 6 0 10 -7 10 -15z
m695 -62 c-18 -104 -46 -234 -55 -255 -8 -18 -9 -7 -6 45 2 37 9 73 15 81 6 7
17 48 23 90 7 42 16 76 21 76 4 0 5 -17 2 -37z m-709 -16 c-3 -18 -13 -42 -21
-53 -14 -18 -14 -16 -8 16 8 48 22 84 29 77 4 -3 4 -21 0 -40z m770 -102 c-6
-25 -13 -45 -16 -45 -8 0 -5 73 3 88 16 25 23 2 13 -43z m-179 3 c-3 -7 -5 -2
-5 12 0 14 2 19 5 13 2 -7 2 -19 0 -25z m163 -77 c0 -12 -20 -25 -27 -18 -7 7
6 27 18 27 5 0 9 -4 9 -9z m-290 -136 c0 -8 -4 -15 -10 -15 -5 0 -10 7 -10 15
0 8 5 15 10 15 6 0 10 -7 10 -15z m310 -23 c0 -5 -10 -18 -22 -29 -13 -11 -28
-29 -34 -39 -7 -10 -14 -17 -17 -14 -10 9 43 90 59 90 8 0 14 -4 14 -8z m-285
-141 c-7 -23 -25 -29 -25 -8 0 14 21 39 28 33 2 -3 1 -14 -3 -25z m215 -8 c0
-14 -19 -38 -25 -32 -8 8 5 39 16 39 5 0 9 -3 9 -7z m-235 -60 c-4 -10 -16
-42 -26 -72 -10 -30 -23 -59 -27 -65 -5 -6 -22 -47 -38 -91 -15 -44 -47 -107
-70 -141 -47 -69 -65 -120 -40 -111 22 9 20 -5 -4 -25 -11 -10 -44 -56 -74
-102 -41 -63 -68 -93 -103 -115 -26 -16 -49 -29 -50 -27 -6 6 110 191 129 208
11 9 17 21 14 26 -3 6 14 38 37 73 54 80 107 173 107 188 0 6 16 34 35 62 19
28 37 66 41 86 8 42 51 123 66 123 6 0 7 -8 3 -17z m219 -5 c3 -15 -7 -48 -32
-98 -20 -41 -38 -89 -39 -107 -2 -31 -64 -123 -83 -123 -4 0 -11 11 -14 25 -7
26 12 74 44 110 29 34 81 140 70 143 -15 5 -12 16 11 46 25 32 35 33 43 4z
m-332 -90 c-7 -7 -12 -8 -12 -2 0 14 12 26 19 19 2 -3 -1 -11 -7 -17z m-33
-64 c-14 -18 -24 -11 -15 11 3 9 11 13 16 10 8 -5 7 -11 -1 -21z m-579 -34 c0
-5 -4 -10 -10 -10 -5 0 -10 5 -10 10 0 6 5 10 10 10 6 0 10 -4 10 -10z m221
-83 c-8 -8 -11 -7 -11 4 0 20 13 34 18 19 3 -7 -1 -17 -7 -23z m301 11 c-7 -7
-12 -8 -12 -2 0 14 12 26 19 19 2 -3 -1 -11 -7 -17z m-567 -8 c-10 -11 -20
-18 -23 -15 -7 6 18 35 31 35 5 0 2 -9 -8 -20z m-115 -20 c0 -20 -95 -170
-107 -170 -18 0 -17 3 25 66 48 74 50 76 56 97 6 18 26 24 26 7z m840 -35 c-7
-9 -15 -13 -17 -11 -7 7 7 26 19 26 6 0 6 -6 -2 -15z m-806 -19 c-6 -17 -34
-30 -34 -16 0 5 8 14 18 19 22 13 22 13 16 -3z m606 -6 c0 -11 -7 -20 -15 -20
-18 0 -19 12 -3 28 16 16 18 15 18 -8z m344 -3 c-4 -7 -14 -20 -22 -29 -7 -9
-11 -21 -8 -26 3 -5 -1 -15 -9 -22 -8 -7 -15 -21 -15 -31 0 -23 -93 -186 -125
-218 -53 -54 -39 8 17 79 32 39 34 50 13 50 -8 0 -21 -16 -29 -35 -8 -19 -22
-35 -30 -35 -23 0 -20 9 29 89 25 40 45 81 45 91 0 22 64 75 79 66 5 -4 18 4
28 18 18 23 40 26 27 3z m-914 -16 c-10 -20 -29 -36 -34 -30 -9 10 15 49 29
49 12 0 14 -4 5 -19z m-80 -36 c-7 -8 -20 -15 -29 -15 -12 1 -11 5 8 21 26 22
41 18 21 -6z m577 -102 c-125 -222 -384 -549 -543 -685 -172 -148 -226 -188
-250 -188 -14 0 -23 4 -20 9 4 5 0 12 -6 14 -7 3 -3 6 9 6 33 1 92 32 87 46
-3 6 12 20 33 31 33 17 76 58 63 60 -10 1 29 34 42 34 19 1 80 59 73 70 -3 5
17 24 46 42 44 26 49 33 33 38 -16 6 -13 10 19 23 21 9 36 20 33 25 -3 5 32
47 77 93 89 92 157 182 157 209 0 9 15 33 34 52 34 35 66 87 66 108 0 16 94
129 98 119 2 -5 -21 -52 -51 -106z m198 25 c-37 -71 -95 -121 -95 -83 0 8 3
15 8 15 19 1 45 32 48 57 3 27 51 80 62 69 3 -3 -7 -30 -23 -58z m-781 -27
c-43 -72 -64 -93 -64 -64 0 21 75 123 90 123 5 0 -7 -27 -26 -59z m-104 29 c0
-5 -4 -10 -10 -10 -5 0 -10 5 -10 10 0 6 5 10 10 10 6 0 10 -4 10 -10z m-75
-97 c-27 -42 -57 -73 -72 -73 -19 0 -17 3 30 52 48 52 67 61 42 21z m675 -4
c-10 -17 -30 -27 -30 -13 0 15 22 44 31 39 5 -4 5 -13 -1 -26z m185 -74 c-15
-25 -44 -62 -66 -82 -21 -20 -36 -40 -33 -44 3 -5 -2 -22 -11 -40 -12 -23 -22
-30 -36 -26 -14 4 -19 0 -19 -14 0 -10 -4 -19 -10 -19 -32 0 21 92 86 150 33
29 35 33 20 42 -17 9 -17 11 0 29 9 10 25 19 35 19 22 0 34 17 17 23 -8 3 -3
9 12 15 35 13 36 0 5 -53z m-785 5 c0 -5 -5 -10 -11 -10 -5 0 -7 5 -4 10 3 6
8 10 11 10 2 0 4 -4 4 -10z m-126 -25 c-29 -22 -42 -17 -15 6 13 11 26 17 29
14 3 -3 -3 -12 -14 -20z m66 -39 c0 -3 -4 -8 -10 -11 -5 -3 -10 -1 -10 4 0 6
5 11 10 11 6 0 10 -2 10 -4z m936 -31 c9 -21 -80 -154 -161 -243 -38 -43 -75
-86 -81 -97 -17 -31 -43 -43 -54 -25 -15 24 -12 31 19 43 16 6 34 20 39 31 6
12 44 63 86 115 42 51 73 98 70 103 -6 9 55 86 69 87 4 1 10 -6 13 -14z m-260
-31 c-10 -14 -20 -23 -23 -21 -2 3 3 17 13 31 9 15 19 24 22 22 2 -3 -3 -17
-12 -32z m-61 -13 c-3 -6 -11 -11 -17 -11 -6 0 -6 6 2 15 14 17 26 13 15 -4z
m-4897 -12 c7 -12 11 -24 8 -27 -6 -6 -35 27 -36 41 0 14 15 7 28 -14z m4892
-44 c0 -8 -51 -55 -60 -55 -5 0 -16 -12 -25 -28 -16 -26 -83 -78 -91 -70 -7 8
59 80 108 119 45 35 68 47 68 34z m-4665 -55 c10 -11 14 -20 8 -20 -5 0 -18 9
-28 20 -10 11 -14 20 -8 20 5 0 18 -9 28 -20z m3840 -60 c-19 -21 -45 -27 -45
-10 0 11 30 29 49 30 11 0 10 -5 -4 -20z m-3765 -5 c7 -8 8 -15 2 -15 -5 0
-15 7 -22 15 -7 8 -8 15 -2 15 5 0 15 -7 22 -15z m4555 -43 c-12 -10 -24 -25
-27 -34 -9 -22 -48 -44 -48 -26 0 15 81 91 89 83 3 -4 -3 -14 -14 -23z m-4481
-10 c22 -15 41 -33 44 -41 5 -14 -82 41 -93 59 -11 17 9 10 49 -18z m3426 -17
c0 -8 -21 -23 -47 -35 -26 -11 -56 -28 -67 -38 -10 -9 -17 -12 -15 -5 4 12
109 93 121 93 5 0 8 -7 8 -15z m161 -16 c-22 -18 -51 -26 -51 -14 0 9 64 45
70 39 3 -3 -6 -14 -19 -25z m-81 -69 c-19 -17 -40 -30 -47 -30 -6 0 -18 -8
-25 -18 -17 -24 -158 -122 -175 -122 -26 0 6 38 55 67 26 14 63 39 82 53 46
35 122 80 135 79 6 0 -6 -13 -25 -29z m740 6 c0 -3 -4 -8 -10 -11 -5 -3 -10
-1 -10 4 0 6 5 11 10 11 6 0 10 -2 10 -4z m102 -37 c-24 -23 -46 -38 -50 -34
-7 7 67 74 83 74 6 0 -9 -18 -33 -40z m198 11 c0 -13 -191 -200 -204 -200 -5
0 -18 -7 -28 -17 -10 -9 -21 -13 -25 -10 -8 9 26 47 42 47 7 0 15 8 17 18 3
10 22 26 42 36 25 12 36 24 36 39 1 16 17 33 58 59 66 43 62 41 62 28z m-290
-20 c0 -5 -5 -10 -11 -10 -5 0 -7 5 -4 10 3 6 8 10 11 10 2 0 4 -4 4 -10z
m-55 -20 c-3 -5 2 -10 11 -10 18 0 -92 -75 -133 -91 -34 -13 -28 0 19 40 67
58 121 90 103 61z m-4149 -31 c19 -22 19 -22 -3 -8 -13 8 -23 17 -23 21 0 12
6 9 26 -13z m4176 -59 c-29 -27 -58 -50 -64 -50 -7 0 10 23 37 50 27 28 56 50
64 50 9 0 -8 -22 -37 -50z m-1300 -62 c-6 -6 -15 -8 -19 -4 -4 4 -1 11 7 16
19 12 27 3 12 -12z m-2762 -28 c0 -5 -2 -10 -4 -10 -3 0 -8 5 -11 10 -3 6 -1
10 4 10 6 0 11 -4 11 -10z m3827 4 c-3 -3 -12 -4 -19 -1 -8 3 -5 6 6 6 11 1
17 -2 13 -5z m108 -30 c-110 -98 -293 -235 -355 -266 -25 -13 -60 -36 -79 -52
-38 -32 -191 -109 -200 -100 -3 3 1 9 9 14 73 42 123 72 185 112 41 26 88 54
105 63 17 9 28 20 25 25 -4 6 1 10 9 10 9 0 30 9 48 20 18 11 27 20 20 20 -10
0 -10 3 0 16 37 44 50 54 76 54 25 0 81 29 58 30 -15 0 16 30 31 30 9 0 31 14
50 30 18 17 39 30 46 30 7 -1 -6 -17 -28 -36z m-1135 16 c12 -7 11 -10 -5 -16
-11 -4 -27 -13 -35 -20 -19 -15 -94 -37 -140 -39 -19 -1 -57 -5 -85 -9 -45 -7
-51 -6 -63 15 -13 21 -13 22 16 16 21 -4 36 -1 51 12 13 11 52 23 98 30 42 6
79 14 82 16 8 9 65 5 81 -5z m120 -19 c0 -5 -10 -11 -22 -15 -36 -9 -41 -7
-28 9 13 16 50 21 50 6z m836 -27 c-30 -24 -45 -43 -42 -53 5 -16 -52 -61 -78
-61 -7 0 -30 -17 -52 -37 -24 -23 -61 -45 -95 -55 -62 -20 -147 -70 -155 -93
-4 -8 -10 -15 -16 -15 -5 0 -24 -11 -42 -25 -17 -13 -56 -29 -84 -36 -29 -6
-65 -22 -81 -35 -16 -13 -32 -24 -35 -24 -4 0 -36 -13 -71 -30 -35 -16 -68
-30 -73 -30 -4 0 -34 -13 -65 -29 -59 -30 -154 -58 -164 -47 -3 3 3 9 13 12
100 35 284 118 387 174 69 37 143 74 163 82 20 7 39 19 41 25 3 7 33 29 67 50
33 20 99 62 144 92 149 99 216 141 228 141 7 0 14 7 18 15 3 8 13 15 22 15 11
0 -1 -14 -30 -36z m369 16 c-3 -5 -11 -10 -16 -10 -6 0 -7 5 -4 10 3 6 11 10
16 10 6 0 7 -4 4 -10z m-1683 -32 c-9 -9 -15 -9 -24 0 -9 9 -7 12 12 12 19 0
21 -3 12 -12z m-32 -34 c0 -17 -22 -14 -28 4 -2 7 3 12 12 12 9 0 16 -7 16
-16z m1570 -9 c-14 -17 -40 -20 -40 -6 0 8 18 16 44 20 5 0 3 -6 -4 -14z
m-1730 -24 c0 -14 -18 -23 -30 -16 -6 4 -8 11 -5 16 8 12 35 12 35 0z m-585
-23 c28 -13 33 -28 9 -28 -23 0 -55 20 -49 31 8 11 9 11 40 -3z m925 -8 c0 -5
-5 -10 -11 -10 -5 0 -7 5 -4 10 3 6 8 10 11 10 2 0 4 -4 4 -10z m-70 -20 c-20
-13 -50 -13 -50 0 0 6 15 10 33 10 24 0 28 -3 17 -10z m-96 -6 c9 -3 16 -10
16 -15 0 -15 -37 -10 -50 6 -10 12 -10 15 3 15 8 0 22 -3 31 -6z m-645 -10
c17 -4 31 -10 31 -15 0 -15 -67 -10 -80 6 -14 17 -4 19 49 9z m-395 -19 c3 -9
13 -15 22 -13 9 2 19 -3 21 -10 4 -9 -8 -12 -43 -10 -36 2 -50 7 -52 20 -3 14
8 21 39 27 4 0 10 -6 13 -14z m896 -14 c0 -15 -16 -22 -34 -15 -25 9 -19 24 9
24 14 0 25 -4 25 -9z m-810 -11 c0 -5 -4 -10 -10 -10 -5 0 -10 5 -10 10 0 6 5
10 10 10 6 0 10 -4 10 -10z m81 -3 c-1 -12 -15 -9 -19 4 -3 6 1 10 8 8 6 -3
11 -8 11 -12z m309 3 c0 -5 -4 -10 -10 -10 -5 0 -10 5 -10 10 0 6 5 10 10 10
6 0 10 -4 10 -10z m320 3 c-1 -14 -50 -44 -66 -41 -26 5 -20 23 9 26 15 2 25
8 22 13 -4 5 3 9 14 9 12 0 21 -3 21 -7z m-1247 -10 c-7 -2 -19 -2 -25 0 -7 3
-2 5 12 5 14 0 19 -2 13 -5z m246 -18 c12 -3 20 -12 18 -18 -3 -8 -29 -11 -83
-8 -76 3 -114 13 -114 30 0 9 147 7 179 -4z m347 -21 c30 -8 54 -20 54 -25 0
-14 -94 -11 -115 4 -10 8 -15 19 -11 25 9 15 7 15 72 -4z m-680 -4 c15 -6 24
-13 22 -16 -8 -8 -58 7 -58 17 0 11 3 11 36 -1z m589 -10 c3 -5 -1 -10 -9 -10
-9 0 -16 5 -16 10 0 6 4 10 9 10 6 0 13 -4 16 -10z m-390 -86 c86 -58 105 -92
43 -79 -17 4 -38 8 -47 10 -9 1 -18 10 -20 20 -2 11 -14 27 -27 38 -54 42 -10
51 51 11z m201 -43 c18 -12 18 -12 -4 -7 -35 7 -55 -3 -41 -20 7 -8 10 -17 7
-19 -6 -6 -88 47 -88 57 0 11 104 2 126 -11z m2029 -31 c-3 -5 -11 -10 -17
-10 -6 0 -19 -6 -27 -14 -32 -28 -219 -118 -237 -114 -13 3 1 14 46 35 36 16
97 49 135 71 66 39 114 54 100 32z m-425 -20 c0 -5 -7 -10 -16 -10 -8 0 -12 5
-9 10 3 6 10 10 16 10 5 0 9 -4 9 -10z m-980 -30 c0 -5 -4 -10 -9 -10 -6 0
-13 5 -16 10 -3 6 1 10 9 10 9 0 16 -4 16 -10z m-452 -6 c12 -4 22 -11 22 -16
0 -12 -70 -1 -84 13 -11 10 26 12 62 3z m326 -15 c17 -16 -2 -22 -34 -11 -17
6 -37 9 -45 6 -8 -4 -15 -1 -15 6 0 6 5 8 10 5 6 -3 10 -1 10 5 0 13 58 4 74
-11z m-124 1 c0 -5 -7 -10 -15 -10 -8 0 -15 5 -15 10 0 6 7 10 15 10 8 0 15
-4 15 -10z m190 0 c0 -5 -4 -10 -10 -10 -5 0 -10 5 -10 10 0 6 5 10 10 10 6 0
10 -4 10 -10z m-395 -30 c4 -6 -7 -10 -24 -10 -17 0 -31 5 -31 10 0 6 11 10
24 10 14 0 28 -4 31 -10z m-400 -30 c3 -5 -1 -10 -10 -10 -9 0 -13 5 -10 10 3
6 8 10 10 10 2 0 7 -4 10 -10z m1095 -72 c0 -4 -9 -8 -21 -8 -11 0 -18 4 -15
8 3 5 12 9 21 9 8 0 15 -4 15 -9z m-145 -28 c3 -5 -3 -10 -15 -10 -12 0 -18 5
-15 10 3 6 10 10 15 10 5 0 12 -4 15 -10z m-422 -17 c-7 -2 -21 -2 -30 0 -10
3 -4 5 12 5 17 0 24 -2 18 -5z m-693 -204 c0 -5 -4 -9 -10 -9 -5 0 -10 7 -10
16 0 8 5 12 10 9 6 -3 10 -10 10 -16z m713 -66 c-7 -2 -21 -2 -30 0 -10 3 -4
5 12 5 17 0 24 -2 18 -5z"/>
<path d="M2738 7313 c7 -3 16 -2 19 1 4 3 -2 6 -13 5 -11 0 -14 -3 -6 -6z"/>
<path d="M2685 7300 c-3 -6 1 -7 9 -4 18 7 21 14 7 14 -6 0 -13 -4 -16 -10z"/>
<path d="M4180 7830 c0 -5 7 -10 16 -10 8 0 12 5 9 10 -3 6 -10 10 -16 10 -5
0 -9 -4 -9 -10z"/>
<path d="M4430 7782 c0 -4 9 -8 20 -9 11 -1 20 2 20 8 0 5 -9 9 -20 9 -11 0
-20 -4 -20 -8z"/>
<path d="M4559 7756 c7 -9 23 -16 34 -16 26 0 12 15 -23 25 -22 7 -23 6 -11
-9z"/>
<path d="M4825 7690 c3 -5 8 -10 11 -10 2 0 4 5 4 10 0 6 -5 10 -11 10 -5 0
-7 -4 -4 -10z"/>
<path d="M4948 7655 c13 -9 26 -14 29 -11 8 8 3 12 -27 21 l-25 7 23 -17z"/>
<path d="M5018 7628 c6 -6 18 -8 28 -6 14 3 12 5 -9 10 -19 3 -25 2 -19 -4z"/>
<path d="M5070 7610 c0 -5 5 -10 10 -10 6 0 10 5 10 10 0 6 -4 10 -10 10 -5 0
-10 -4 -10 -10z"/>
<path d="M5170 7570 c0 -13 18 -22 24 -11 3 5 -1 11 -9 15 -8 3 -15 1 -15 -4z"/>
<path d="M2187 7544 c-16 -9 -26 -18 -23 -21 3 -3 20 4 38 16 38 24 27 28 -15
5z"/>
<path d="M2050 7471 c-14 -10 -45 -30 -68 -45 -24 -15 -41 -30 -38 -33 8 -8
87 41 115 71 28 30 26 32 -9 7z"/>
<path d="M5390 7466 c1 -6 15 -18 33 -26 18 -9 61 -32 97 -52 37 -21 71 -34
78 -29 7 4 -31 29 -98 63 -61 31 -110 51 -110 44z"/>
<path d="M1886 7365 c-11 -8 -15 -15 -9 -15 6 0 16 7 23 15 16 19 11 19 -14 0z"/>
<path d="M5635 7338 c11 -7 33 -24 50 -39 30 -29 42 -31 32 -5 -3 8 -24 24
-46 36 -42 21 -70 28 -36 8z"/>
<path d="M5815 7230 c3 -5 11 -10 16 -10 6 0 7 5 4 10 -3 6 -11 10 -16 10 -6
0 -7 -4 -4 -10z"/>
<path d="M5850 7201 c0 -6 14 -18 30 -28 17 -9 30 -21 30 -26 0 -5 9 -5 20 -2
11 4 20 3 19 -2 -3 -20 2 -34 11 -28 6 3 10 -2 10 -12 0 -14 2 -15 9 -4 5 7
14 10 20 7 6 -4 9 -11 6 -16 -3 -4 11 -22 30 -39 37 -32 51 -39 39 -20 -4 7
-1 10 7 7 8 -3 13 -11 11 -18 -6 -26 76 -88 98 -75 9 6 14 -8 8 -20 -2 -2 29
-36 67 -75 47 -48 76 -69 88 -66 12 3 17 -2 17 -17 0 -28 140 -163 169 -163
23 0 -16 44 -183 205 -44 42 -101 97 -127 124 -25 26 -50 47 -54 47 -7 0 -59
42 -110 89 -11 10 -38 30 -60 45 -22 14 -62 41 -90 61 -52 36 -65 41 -65 26z
m290 -211 c0 -5 -4 -10 -10 -10 -5 0 -10 5 -10 10 0 6 5 10 10 10 6 0 10 -4
10 -10z"/>
<path d="M3674 6769 c-3 -6 6 -22 22 -34 34 -27 43 -17 18 19 -18 28 -29 32
-40 15z"/>
<path d="M3552 6736 c8 -8 17 -11 24 -5 6 5 15 4 22 -3 8 -8 12 -9 12 -1 0 13
-23 23 -51 23 -16 0 -18 -2 -7 -14z"/>
<path d="M3518 6673 c6 -2 18 -2 25 0 6 3 1 5 -13 5 -14 0 -19 -2 -12 -5z"/>
<path d="M2902 6608 c-24 -11 -42 -21 -40 -23 5 -5 86 14 113 25 11 5 29 11
40 13 11 3 0 5 -25 5 -25 0 -65 -9 -88 -20z"/>
<path d="M3058 6583 c7 -3 16 -2 19 1 4 3 -2 6 -13 5 -11 0 -14 -3 -6 -6z"/>
<path d="M6555 6579 c-8 -11 32 -74 69 -108 l23 -22 6 22 c4 16 -5 35 -35 70
-42 51 -52 56 -63 38z"/>
<path d="M2828 6573 c7 -3 16 -2 19 1 4 3 -2 6 -13 5 -11 0 -14 -3 -6 -6z"/>
<path d="M2995 6562 c-11 -2 -24 -8 -30 -14 -9 -9 43 -1 54 8 8 7 -4 10 -24 6z"/>
<path d="M6700 6566 c0 -2 8 -10 18 -17 15 -13 16 -12 3 4 -13 16 -21 21 -21
13z"/>
<path d="M2894 6535 c-10 -8 -14 -15 -7 -15 19 0 43 11 43 21 0 13 -14 11 -36
-6z"/>
<path d="M4990 6466 c0 -2 7 -7 16 -10 8 -3 12 -2 9 4 -6 10 -25 14 -25 6z"/>
<path d="M6670 6440 c0 -5 19 -28 42 -52 23 -24 50 -60 60 -82 12 -25 23 -36
32 -33 18 7 38 -16 31 -34 -7 -18 31 -79 48 -79 16 0 57 -42 57 -58 0 -10 -5
-10 -22 -2 -19 9 -21 9 -8 -2 8 -7 21 -24 28 -38 36 -69 48 -90 87 -155 24
-38 59 -103 79 -143 26 -51 42 -72 53 -70 9 2 18 -3 21 -11 3 -9 0 -11 -8 -6
-9 6 -10 -1 -5 -26 9 -45 40 -115 54 -123 6 -4 11 -18 11 -32 0 -14 7 -27 15
-30 8 -4 13 -10 10 -15 -10 -15 24 -81 45 -86 23 -6 25 -14 9 -30 -8 -8 -4
-30 17 -83 15 -39 31 -73 36 -76 4 -3 8 -17 8 -32 1 -33 21 -62 44 -62 9 0 16
-5 16 -11 0 -5 -4 -7 -10 -4 -5 3 -10 0 -10 -7 0 -15 23 -97 41 -148 6 -19 14
-42 16 -50 3 -12 6 -12 12 -1 5 8 7 -4 4 -30 -4 -36 0 -50 21 -78 20 -26 23
-37 14 -51 -8 -12 -8 -30 0 -63 7 -25 12 -59 12 -76 0 -16 7 -37 17 -46 14
-14 14 -18 2 -26 -12 -8 -11 -11 3 -20 14 -8 16 -13 6 -29 -9 -13 -9 -25 -1
-42 6 -13 8 -47 6 -75 -5 -48 -4 -52 16 -50 31 2 30 14 -29 357 -33 195 -38
218 -49 239 -6 11 -11 28 -11 38 0 34 -120 382 -160 465 -11 23 -20 49 -20 58
0 9 -4 20 -8 25 -5 6 -24 47 -41 92 -18 45 -39 87 -46 93 -8 6 -17 23 -20 38
-3 15 -17 45 -30 67 -13 22 -33 59 -43 81 -38 81 -91 154 -107 148 -18 -7 -33
25 -16 35 8 5 5 17 -11 42 -13 19 -30 47 -38 64 -24 49 -141 208 -214 291 -36
41 -66 57 -66 34z m308 -398 c6 -18 -15 -14 -22 4 -4 10 -1 14 6 12 6 -2 14
-10 16 -16z m392 -812 c0 -5 -5 -10 -11 -10 -5 0 -7 5 -4 10 3 6 8 10 11 10 2
0 4 -4 4 -10z"/>
<path d="M2705 6430 c-3 -6 1 -7 9 -4 18 7 21 14 7 14 -6 0 -13 -4 -16 -10z"/>
<path d="M6830 6406 c0 -2 8 -10 18 -17 15 -13 16 -12 3 4 -13 16 -21 21 -21
13z"/>
<path d="M5150 6381 c0 -5 11 -16 25 -25 28 -18 34 -6 9 18 -17 18 -34 21 -34
7z"/>
<path d="M771 6337 c-13 -21 -12 -21 5 -5 10 10 16 20 13 22 -3 3 -11 -5 -18
-17z"/>
<path d="M691 6224 c-27 -44 -71 -112 -96 -152 -26 -40 -45 -75 -42 -78 3 -3
18 16 33 41 41 65 103 163 136 214 16 24 27 46 24 48 -3 3 -28 -30 -55 -73z"/>
<path d="M6955 6236 c10 -14 19 -26 22 -26 7 0 -17 39 -28 46 -6 3 -3 -5 6
-20z"/>
<path d="M5285 6180 c8 -13 65 -43 71 -37 3 3 -14 14 -36 26 -23 12 -39 17
-35 11z"/>
<path d="M7063 6075 c9 -16 23 -39 32 -50 9 -11 7 -2 -6 20 -27 49 -47 72 -26
30z"/>
<path d="M5493 6035 c15 -14 32 -25 38 -25 17 0 9 8 -28 29 l-38 22 28 -26z"/>
<path d="M7133 5955 c14 -27 33 -59 42 -70 9 -11 2 7 -15 40 -40 74 -62 99
-27 30z"/>
<path d="M5570 5976 c0 -2 7 -7 16 -10 8 -3 12 -2 9 4 -6 10 -25 14 -25 6z"/>
<path d="M5819 5952 c5 -10 18 -25 27 -33 11 -9 9 -2 -6 19 -26 35 -36 42 -21
14z"/>
<path d="M5610 5946 c0 -3 15 -15 33 -27 l32 -23 -24 27 c-22 24 -41 35 -41
23z"/>
<path d="M5800 5898 c0 -9 -3 -23 -6 -31 -5 -14 124 -177 147 -185 19 -8 8 39
-15 59 -13 11 -31 37 -40 58 -10 20 -27 41 -39 46 -12 6 -23 19 -25 30 -5 26
-22 44 -22 23z"/>
<path d="M5870 5893 c0 -6 8 -17 18 -24 16 -13 16 -13 2 6 -8 11 -16 22 -17
24 -2 2 -3 0 -3 -6z"/>
<path d="M5720 5846 c19 -21 44 -42 55 -48 16 -9 16 -6 -5 17 -14 15 -38 36
-55 48 -29 20 -29 19 5 -17z"/>
<path d="M7190 5857 c0 -10 70 -147 76 -147 5 0 -12 44 -35 87 -25 48 -41 70
-41 60z"/>
<path d="M446 5813 c-6 -14 -5 -15 5 -6 7 7 10 15 7 18 -3 3 -9 -2 -12 -12z"/>
<path d="M412 5744 c-13 -25 -21 -48 -19 -50 6 -6 49 76 45 87 -2 6 -14 -11
-26 -37z"/>
<path d="M371 5649 c-6 -18 -9 -34 -7 -36 2 -2 9 10 15 28 6 18 9 34 7 36 -2
2 -9 -10 -15 -28z"/>
<path d="M492 5655 c-7 -14 -12 -32 -12 -39 0 -7 -9 -22 -19 -33 -24 -26 -53
-92 -45 -104 15 -26 22 -14 75 140 20 57 20 79 1 36z"/>
<path d="M7290 5661 c0 -14 28 -71 35 -71 5 0 -22 70 -30 79 -3 2 -5 -1 -5 -8z"/>
<path d="M5936 5606 c21 -25 40 -46 41 -46 9 0 -44 70 -60 80 -11 6 -2 -9 19
-34z"/>
<path d="M6026 5592 c-8 -13 3 -42 15 -42 11 0 11 21 0 39 -5 8 -11 9 -15 3z"/>
<path d="M321 5529 c-6 -18 -11 -37 -10 -43 0 -6 7 7 15 28 8 22 12 41 10 43
-2 2 -9 -10 -15 -28z"/>
<path d="M7336 5547 c3 -10 9 -15 12 -12 3 3 0 11 -7 18 -10 9 -11 8 -5 -6z"/>
<path d="M5990 5530 c0 -5 5 -10 11 -10 5 0 7 5 4 10 -3 6 -8 10 -11 10 -2 0
-4 -4 -4 -10z"/>
<path d="M7350 5519 c0 -4 7 -22 15 -40 8 -19 14 -27 14 -19 0 14 -28 72 -29
59z"/>
<path d="M6137 5453 c-20 -20 7 -103 34 -103 12 0 12 37 -1 45 -5 3 -10 19
-10 36 0 28 -9 37 -23 22z"/>
<path d="M6060 5421 c0 -6 4 -13 10 -16 6 -3 7 1 4 9 -7 18 -14 21 -14 7z"/>
<path d="M396 5404 c-9 -24 -2 -26 12 -4 7 11 8 20 3 20 -5 0 -12 -7 -15 -16z"/>
<path d="M7401 5390 c0 -8 6 -26 15 -40 l15 -25 -7 25 c-3 14 -10 32 -15 40
-7 13 -8 13 -8 0z"/>
<path d="M6080 5385 c0 -8 50 -85 55 -85 8 0 -33 78 -45 85 -5 3 -10 4 -10 0z"/>
<path d="M6190 5335 c-10 -12 -10 -24 0 -60 7 -25 16 -45 20 -45 13 0 20 43
13 83 -6 40 -14 45 -33 22z"/>
<path d="M371 5324 c0 -11 3 -14 6 -6 3 7 2 16 -1 19 -3 4 -6 -2 -5 -13z"/>
<path d="M7440 5281 c0 -6 4 -13 10 -16 6 -3 7 1 4 9 -7 18 -14 21 -14 7z"/>
<path d="M6149 5252 c5 -10 17 -25 26 -32 13 -11 13 -8 -2 18 -19 33 -41 46
-24 14z"/>
<path d="M6300 5251 c0 -5 5 -13 10 -16 6 -3 10 -2 10 4 0 5 -4 13 -10 16 -5
3 -10 2 -10 -4z"/>
<path d="M6254 5200 c-18 -44 -28 -49 -43 -22 -9 14 -10 13 -11 -10 0 -16 5
-28 10 -28 6 0 10 -6 10 -14 0 -7 7 -19 15 -26 8 -7 15 -20 15 -30 0 -9 9 -25
20 -35 11 -10 20 -30 20 -45 0 -15 7 -41 15 -56 8 -16 15 -42 15 -57 0 -15 7
-39 16 -52 9 -13 13 -28 10 -34 -3 -5 -1 -11 5 -13 6 -2 14 -31 18 -66 4 -34
11 -65 15 -69 5 -5 5 14 2 41 -9 56 6 56 24 0 10 -28 14 -33 26 -23 17 14 19
39 3 39 -8 0 -10 12 -6 35 3 19 2 37 -2 40 -5 2 -11 19 -15 36 -5 28 -8 30
-23 18 -15 -13 -16 -12 -11 9 4 12 3 22 -1 22 -9 0 -8 46 1 55 11 11 -15 45
-35 45 -10 0 -16 4 -13 8 3 5 2 38 -2 73 -5 47 -11 64 -22 64 -12 0 -16 15
-18 68 -2 37 -7 67 -13 67 -5 0 -16 -18 -25 -40z"/>
<path d="M7481 5174 c0 -11 3 -14 6 -6 3 7 2 16 -1 19 -3 4 -6 -2 -5 -13z"/>
<path d="M235 5127 c-4 -10 -5 -21 -1 -24 10 -10 18 4 13 24 -4 17 -4 17 -12
0z"/>
<path d="M210 5020 c0 -11 2 -20 4 -20 2 0 6 9 9 20 3 11 1 20 -4 20 -5 0 -9
-9 -9 -20z"/>
<path d="M7567 4889 c4 -13 8 -18 11 -10 2 7 -1 18 -6 23 -8 8 -9 4 -5 -13z"/>
<path d="M7581 4844 c0 -11 3 -14 6 -6 3 7 2 16 -1 19 -3 4 -6 -2 -5 -13z"/>
<path d="M7601 4734 c0 -11 3 -14 6 -6 3 7 2 16 -1 19 -3 4 -6 -2 -5 -13z"/>
<path d="M160 4680 c0 -5 5 -10 10 -10 6 0 10 5 10 10 0 6 -4 10 -10 10 -5 0
-10 -4 -10 -10z"/>
<path d="M7625 4580 c3 -5 8 -10 11 -10 2 0 4 5 4 10 0 6 -5 10 -11 10 -5 0
-7 -4 -4 -10z"/>
<path d="M7641 4514 c0 -11 3 -14 6 -6 3 7 2 16 -1 19 -3 4 -6 -2 -5 -13z"/>
<path d="M6422 4485 c0 -16 2 -22 5 -12 2 9 2 23 0 30 -3 6 -5 -1 -5 -18z"/>
<path d="M7661 4364 c0 -11 3 -14 6 -6 3 7 2 16 -1 19 -3 4 -6 -2 -5 -13z"/>
<path d="M7587 4210 c-3 -19 -11 -123 -18 -230 -14 -224 -15 -236 -30 -350 -6
-47 -12 -114 -15 -150 -2 -36 -8 -82 -13 -102 -6 -27 -5 -42 4 -55 18 -24 18
-26 50 180 3 19 0 27 -10 27 -8 0 -15 5 -15 11 0 5 4 8 9 4 6 -3 15 3 20 14 8
15 7 23 -4 35 -20 20 -19 34 2 32 15 -1 19 11 25 64 13 125 20 475 10 515 l-9
40 -6 -35z"/>
<path d="M7672 4165 c0 -16 2 -22 5 -12 2 9 2 23 0 30 -3 6 -5 -1 -5 -18z"/>
<path d="M7670 4084 c0 -8 5 -12 10 -9 6 4 8 11 5 16 -9 14 -15 11 -15 -7z"/>
<path d="M6483 4030 c0 -25 2 -35 4 -22 2 12 2 32 0 45 -2 12 -4 2 -4 -23z"/>
<path d="M7671 4004 c0 -11 3 -14 6 -6 3 7 2 16 -1 19 -3 4 -6 -2 -5 -13z"/>
<path d="M7673 3880 c0 -41 2 -58 4 -37 2 20 2 54 0 75 -2 20 -4 3 -4 -38z"/>
<path d="M7662 3770 c0 -14 2 -19 5 -12 2 6 2 18 0 25 -3 6 -5 1 -5 -13z"/>
<path d="M577 3693 c-9 -2 -15 -9 -12 -14 10 -15 32 -10 32 6 0 8 -1 14 -1 14
-1 -1 -9 -3 -19 -6z"/>
<path d="M7651 3650 c0 -14 -4 -36 -7 -50 -5 -22 -4 -23 6 -7 6 9 9 32 7 50
-3 25 -4 26 -6 7z"/>
<path d="M7641 3544 c0 -11 3 -14 6 -6 3 7 2 16 -1 19 -3 4 -6 -2 -5 -13z"/>
<path d="M913 3493 c9 -2 23 -2 30 0 6 3 -1 5 -18 5 -16 0 -22 -2 -12 -5z"/>
<path d="M6377 3473 c-4 -3 -7 -28 -7 -55 0 -27 -6 -61 -14 -76 -8 -15 -17
-54 -21 -87 -4 -33 -18 -94 -31 -136 -14 -42 -22 -83 -18 -92 3 -9 -6 -35 -20
-59 -14 -24 -32 -62 -40 -85 -13 -38 -13 -41 3 -46 11 -2 23 4 31 17 29 45 70
126 64 126 -4 0 -1 7 6 15 7 9 10 18 7 21 -3 3 -12 -7 -21 -23 -13 -23 -15
-24 -15 -8 -1 22 21 91 32 101 4 4 7 23 7 43 1 20 7 47 14 61 8 14 12 38 9 57
-3 18 -1 45 6 60 6 16 12 54 14 85 2 32 6 61 10 64 4 4 7 11 7 16 0 10 -14 11
-23 1z"/>
<path d="M7620 3445 c0 -8 2 -15 4 -15 2 0 6 7 10 15 3 8 1 15 -4 15 -6 0 -10
-7 -10 -15z"/>
<path d="M7602 3320 c0 -14 2 -19 5 -12 2 6 2 18 0 25 -3 6 -5 1 -5 -13z"/>
<path d="M7495 3287 c-2 -7 -9 -48 -15 -92 -16 -122 -108 -451 -146 -525 -7
-14 -37 -77 -67 -141 -30 -63 -71 -141 -91 -173 -20 -31 -47 -78 -59 -104 -21
-44 -40 -76 -151 -267 -51 -87 -199 -286 -288 -385 -128 -143 -174 -188 -298
-293 -69 -58 -141 -120 -161 -136 -93 -79 -435 -311 -458 -311 -5 0 -22 -11
-38 -23 -15 -13 -40 -27 -55 -30 -14 -4 -40 -18 -56 -32 -17 -14 -37 -25 -45
-25 -8 0 -20 -7 -27 -15 -15 -19 -92 -55 -115 -55 -8 0 -18 -7 -21 -15 -4 -8
-10 -15 -15 -15 -13 0 -72 -61 -65 -67 3 -3 34 13 70 36 36 22 73 41 82 41 10
0 25 6 33 14 9 8 41 26 71 42 30 15 62 33 70 40 8 7 42 26 76 43 33 16 66 37
74 45 7 9 18 16 25 16 7 0 19 7 26 16 8 9 32 25 55 34 65 28 227 147 404 296
85 72 321 301 394 382 112 127 165 195 171 223 4 18 12 29 19 26 18 -7 268
404 343 563 47 100 73 162 79 184 3 14 12 30 20 37 8 6 14 19 14 29 0 18 22
81 40 112 5 9 19 53 30 98 11 45 29 105 39 133 16 47 23 74 47 187 9 42 9 41
17 60 14 34 12 53 -6 56 -10 1 -20 -3 -22 -9z m-1415 -2247 c0 -5 -5 -10 -11
-10 -5 0 -7 5 -4 10 3 6 8 10 11 10 2 0 4 -4 4 -10z"/>
<path d="M7591 3244 c0 -11 3 -14 6 -6 3 7 2 16 -1 19 -3 4 -6 -2 -5 -13z"/>
<path d="M6403 3190 c-6 -17 -8 -30 -3 -30 8 0 24 50 18 56 -2 2 -9 -10 -15
-26z"/>
<path d="M7581 3204 c0 -11 3 -14 6 -6 3 7 2 16 -1 19 -3 4 -6 -2 -5 -13z"/>
<path d="M7476 2834 c-4 -14 -5 -28 -3 -31 3 -2 8 8 11 23 4 14 5 28 3 31 -3
2 -8 -8 -11 -23z"/>
<path d="M6209 2803 c-32 -39 -72 -104 -66 -109 3 -3 10 4 17 15 6 12 16 21
23 21 16 0 52 48 53 71 2 24 -9 24 -27 2z"/>
<path d="M7335 2470 c-9 -16 -13 -30 -11 -30 3 0 12 14 21 30 9 17 13 30 11
30 -3 0 -12 -13 -21 -30z"/>
<path d="M1470 2471 c0 -5 7 -15 17 -22 15 -13 15 -12 4 9 -12 23 -21 28 -21
13z"/>
<path d="M7302 2395 c-17 -37 -14 -45 4 -12 9 16 14 31 11 33 -2 2 -9 -7 -15
-21z"/>
<path d="M1530 2389 c0 -20 61 -100 72 -93 5 3 -1 17 -12 32 -12 15 -30 38
-40 52 -14 18 -19 20 -20 9z"/>
<path d="M1655 2330 c10 -11 20 -20 23 -20 3 0 -3 9 -13 20 -10 11 -20 20 -23
20 -3 0 3 -9 13 -20z"/>
<path d="M7257 2313 c-4 -3 -7 -11 -7 -17 0 -6 5 -5 12 2 6 6 9 14 7 17 -3 3
-9 2 -12 -2z"/>
<path d="M1617 2283 c-8 -13 37 -67 51 -62 7 2 1 17 -17 38 -16 18 -31 29 -34
24z"/>
<path d="M7236 2265 c-9 -26 -7 -32 5 -12 6 10 9 21 6 23 -2 3 -7 -2 -11 -11z"/>
<path d="M1237 2240 c53 -76 117 -160 181 -240 93 -114 320 -351 327 -340 3 5
-45 57 -106 117 -98 95 -224 241 -343 397 -37 49 -84 102 -59 66z"/>
<path d="M5733 2156 c-32 -30 -53 -56 -46 -56 17 0 119 97 111 105 -4 4 -33
-18 -65 -49z"/>
<path d="M1432 2078 c101 -133 321 -351 488 -485 140 -113 210 -162 210 -149
0 3 -11 11 -25 19 -14 7 -52 36 -83 65 -31 28 -120 107 -197 176 -77 68 -157
142 -177 163 -96 98 -148 154 -203 221 -33 39 -64 72 -68 72 -5 0 20 -37 55
-82z"/>
<path d="M7170 2145 c-7 -9 -11 -17 -9 -20 3 -2 10 5 17 15 14 24 10 26 -8 5z"/>
<path d="M1836 2137 c3 -10 9 -15 12 -12 3 3 0 11 -7 18 -10 9 -11 8 -5 -6z"/>
<path d="M1470 2104 c0 -15 27 -50 34 -43 4 3 -2 17 -13 30 -11 13 -20 19 -21
13z"/>
<path d="M1860 2106 c0 -2 7 -7 16 -10 8 -3 12 -2 9 4 -6 10 -25 14 -25 6z"/>
<path d="M1890 2076 c0 -2 8 -10 18 -17 15 -13 16 -12 3 4 -13 16 -21 21 -21
13z"/>
<path d="M1536 2062 c-3 -6 -1 -14 5 -17 15 -10 25 3 12 16 -7 7 -13 7 -17 1z"/>
<path d="M5595 2010 c-16 -17 -16 -20 -3 -15 9 4 19 13 22 21 7 19 2 18 -19
-6z"/>
<path d="M5659 1983 c-13 -16 -12 -17 4 -4 16 13 21 21 13 21 -2 0 -10 -8 -17
-17z"/>
<path d="M7037 1923 c-4 -3 -7 -11 -7 -17 0 -6 5 -5 12 2 6 6 9 14 7 17 -3 3
-9 2 -12 -2z"/>
<path d="M5460 1889 c0 -5 5 -7 10 -4 6 3 10 8 10 11 0 2 -4 4 -10 4 -5 0 -10
-5 -10 -11z"/>
<path d="M5445 1863 c-17 -2 -36 -12 -42 -22 -10 -16 -8 -18 12 -18 13 0 34
10 46 23 12 13 21 23 18 22 -2 0 -18 -3 -34 -5z"/>
<path d="M6951 1794 c-16 -37 -9 -39 11 -3 9 16 14 29 9 29 -4 0 -13 -12 -20
-26z"/>
<path d="M2380 1754 c0 -4 23 -31 51 -61 36 -39 49 -58 44 -72 -7 -24 14 -39
27 -20 8 11 9 11 5 -2 -5 -16 27 -52 75 -83 15 -10 30 -26 33 -37 4 -13 16
-19 34 -19 18 0 34 -8 43 -22 13 -19 15 -19 21 -5 4 11 -1 18 -14 22 -23 8
-49 54 -49 89 0 24 -49 76 -72 76 -6 0 -20 7 -30 17 -11 9 -18 11 -18 5 0 -7
-4 -12 -10 -12 -14 0 -89 72 -103 99 -12 23 -37 41 -37 25z m222 -181 c17 -15
25 -43 12 -43 -12 0 -64 42 -64 51 0 15 32 10 52 -8z"/>
<path d="M5276 1741 c-4 -7 -5 -15 -2 -18 9 -9 19 4 14 18 -4 11 -6 11 -12 0z"/>
<path d="M5205 1700 l-20 -9 20 0 c11 0 27 4 35 9 13 9 13 10 0 9 -8 0 -24 -4
-35 -9z"/>
<path d="M5163 1683 c-15 -5 -17 -23 -4 -23 5 0 11 7 15 15 3 8 4 15 3 14 -1
0 -8 -3 -14 -6z"/>
<path d="M6859 1668 c-12 -23 -12 -23 10 -4 23 21 26 26 11 26 -5 0 -15 -10
-21 -22z"/>
<path d="M4968 1673 c-30 -8 -20 -20 12 -15 17 2 30 8 30 13 0 9 -13 10 -42 2z"/>
<path d="M1840 1591 c0 -5 7 -12 16 -15 14 -5 15 -4 4 9 -14 17 -20 19 -20 6z"/>
<path d="M4818 1593 c6 -2 18 -2 25 0 6 3 1 5 -13 5 -14 0 -19 -2 -12 -5z"/>
<path d="M1900 1552 c0 -5 16 -22 35 -36 19 -15 35 -23 35 -18 0 5 -16 22 -35
36 -19 15 -35 23 -35 18z"/>
<path d="M4605 1539 c-38 -10 -92 -18 -120 -18 -34 -1 -45 -4 -35 -11 14 -8
51 -3 220 29 21 4 29 9 20 12 -8 3 -46 -2 -85 -12z"/>
<path d="M4885 1530 c3 -5 8 -10 11 -10 2 0 4 5 4 10 0 6 -5 10 -11 10 -5 0
-7 -4 -4 -10z"/>
<path d="M2720 1505 c7 -9 15 -13 17 -11 7 7 -7 26 -19 26 -6 0 -6 -6 2 -15z"/>
<path d="M2020 1451 c0 -5 7 -12 16 -15 14 -5 15 -4 4 9 -14 17 -20 19 -20 6z"/>
<path d="M3630 1430 c0 -5 10 -15 23 -21 22 -12 22 -12 3 10 -21 23 -26 26
-26 11z"/>
<path d="M2821 1414 c0 -11 3 -14 6 -6 3 7 2 16 -1 19 -3 4 -6 -2 -5 -13z"/>
<path d="M3150 1401 c19 -16 37 -27 40 -24 6 6 -51 53 -65 53 -5 0 6 -14 25
-29z"/>
<path d="M2957 1375 c11 -8 33 -19 48 -25 25 -9 26 -9 15 5 -7 8 -21 15 -31
15 -10 0 -21 5 -24 10 -3 6 -11 10 -18 10 -6 0 -2 -7 10 -15z"/>
<path d="M3366 1377 c3 -10 21 -25 38 -34 17 -8 27 -11 21 -6 -64 56 -66 57
-59 40z"/>
<path d="M4085 1370 c3 -5 11 -10 16 -10 6 0 7 5 4 10 -3 6 -11 10 -16 10 -6
0 -7 -4 -4 -10z"/>
<path d="M4322 1364 c14 -14 21 -15 30 -6 8 8 9 12 1 12 -6 0 -20 3 -30 6 -17
7 -17 6 -1 -12z"/>
<path d="M2188 1330 c41 -25 54 -25 23 0 -13 11 -31 20 -40 20 -9 0 -3 -8 17
-20z"/>
<path d="M2310 1331 c0 -6 4 -13 10 -16 6 -3 7 1 4 9 -7 18 -14 21 -14 7z"/>
<path d="M3236 1323 c-11 -11 -6 -23 9 -23 8 0 15 4 15 9 0 13 -16 22 -24 14z"/>
<path d="M2310 1265 c7 -9 15 -13 17 -11 7 7 -7 26 -19 26 -6 0 -6 -6 2 -15z"/>
<path d="M1640 1262 c0 -12 19 -26 26 -19 2 2 -2 10 -11 17 -9 8 -15 8 -15 2z"/>
<path d="M1840 1115 c0 -2 10 -10 23 -16 20 -11 21 -11 8 4 -13 16 -31 23 -31
12z"/>
<path d="M2770 1101 c0 -5 5 -13 10 -16 6 -3 10 -2 10 4 0 5 -4 13 -10 16 -5
3 -10 2 -10 -4z"/>
<path d="M2930 1106 c0 -2 9 -6 20 -9 11 -3 18 -1 14 4 -5 9 -34 13 -34 5z"/>
<path d="M2650 996 c0 -2 7 -9 15 -16 9 -7 15 -8 15 -2 0 5 -7 12 -15 16 -8 3
-15 4 -15 2z"/>
<path d="M2796 985 c4 -8 12 -15 20 -15 20 0 17 7 -6 20 -16 9 -18 8 -14 -5z"/>
<path d="M2438 878 c5 -5 16 -8 23 -6 8 3 3 7 -10 11 -17 4 -21 3 -13 -5z"/>
<path d="M2928 813 c7 -3 16 -2 19 1 4 3 -2 6 -13 5 -11 0 -14 -3 -6 -6z"/>
<path d="M2250 800 c8 -5 20 -10 25 -10 6 0 3 5 -5 10 -8 5 -19 10 -25 10 -5
0 -3 -5 5 -10z"/>
<path d="M3426 801 c-4 -5 3 -7 14 -4 23 6 26 13 6 13 -8 0 -17 -4 -20 -9z"/>
<path d="M2998 763 c7 -3 16 -2 19 1 4 3 -2 6 -13 5 -11 0 -14 -3 -6 -6z"/>
<path d="M3203 753 c9 -2 23 -2 30 0 6 3 -1 5 -18 5 -16 0 -22 -2 -12 -5z"/>
<path d="M3118 743 c7 -3 16 -2 19 1 4 3 -2 6 -13 5 -11 0 -14 -3 -6 -6z"/>
<path d="M3273 743 c9 -2 23 -2 30 0 6 3 -1 5 -18 5 -16 0 -22 -2 -12 -5z"/>
<path d="M2430 716 c0 -7 93 -36 98 -31 3 2 -6 8 -19 13 -35 13 -79 23 -79 18z"/>
<path d="M4378 713 c7 -3 16 -2 19 1 4 3 -2 6 -13 5 -11 0 -14 -3 -6 -6z"/>
<path d="M3333 703 c9 -2 25 -2 35 0 9 3 1 5 -18 5 -19 0 -27 -2 -17 -5z"/>
<path d="M3483 693 c9 -2 25 -2 35 0 9 3 1 5 -18 5 -19 0 -27 -2 -17 -5z"/>
<path d="M3648 693 c7 -3 16 -2 19 1 4 3 -2 6 -13 5 -11 0 -14 -3 -6 -6z"/>
<path d="M4229 653 c-1 -5 -1 -11 0 -15 0 -5 -6 -8 -14 -8 -8 0 -15 5 -15 10
0 6 -21 10 -46 10 -37 0 -45 -3 -40 -15 3 -9 0 -15 -9 -15 -8 0 -15 5 -15 10
0 6 -31 9 -79 8 -59 -2 -75 -5 -67 -14 22 -22 58 -26 177 -19 91 6 119 11 119
21 0 8 5 14 10 14 6 0 10 5 10 10 0 11 -29 14 -31 3z"/>
<path d="M2698 623 c7 -3 16 -2 19 1 4 3 -2 6 -13 5 -11 0 -14 -3 -6 -6z"/>
<path d="M3790 620 c0 -5 16 -9 35 -8 19 1 35 5 35 10 0 4 -16 8 -35 8 -19 0
-35 -4 -35 -10z"/>
<path d="M5297 613 c-11 -10 -8 -43 3 -43 6 0 10 11 10 25 0 26 -2 29 -13 18z"/>
<path d="M2838 583 c7 -3 16 -2 19 1 4 3 -2 6 -13 5 -11 0 -14 -3 -6 -6z"/>
<path d="M4298 583 c6 -2 18 -2 25 0 6 3 1 5 -13 5 -14 0 -19 -2 -12 -5z"/>
<path d="M4145 570 c-3 -5 3 -10 14 -10 11 0 23 5 26 10 3 6 -3 10 -14 10 -11
0 -23 -4 -26 -10z"/>
<path d="M5180 560 c-19 -19 -27 -50 -14 -50 4 0 24 16 45 35 38 34 38 35 14
35 -14 0 -34 -9 -45 -20z"/>
<path d="M5090 526 c-57 -30 -97 -46 -130 -53 -40 -7 -102 -32 -82 -33 6 0 12
-6 12 -14 0 -23 108 11 146 46 17 15 33 25 37 22 3 -4 22 -3 41 0 32 6 35 9
23 26 -14 23 -14 23 -47 6z m-100 -66 c0 -5 -4 -10 -10 -10 -5 0 -10 5 -10 10
0 6 5 10 10 10 6 0 10 -4 10 -10z"/>
<path d="M3173 513 c9 -2 25 -2 35 0 9 3 1 5 -18 5 -19 0 -27 -2 -17 -5z"/>
<path d="M3263 503 c9 -2 25 -2 35 0 9 3 1 5 -18 5 -19 0 -27 -2 -17 -5z"/>
<path d="M4783 425 c-26 -16 -44 -21 -48 -15 -11 17 -61 2 -164 -49 -35 -17
-61 -26 -58 -19 3 9 -8 14 -39 15 -24 1 -44 -2 -44 -6 0 -5 -24 -12 -52 -16
-29 -5 -60 -9 -68 -10 -40 -6 -61 -18 -56 -32 3 -8 6 -17 6 -19 0 -2 11 -4 25
-4 15 0 25 6 25 15 0 16 30 35 57 35 15 0 14 -4 -7 -20 -24 -19 -24 -20 -4
-20 13 0 24 8 27 20 6 24 37 27 37 4 0 -18 0 -18 114 6 27 5 62 17 79 25 17 8
40 15 51 15 12 0 44 9 71 19 28 10 71 22 98 26 26 4 47 10 47 12 0 7 -41 43
-49 43 -3 0 -25 -11 -48 -25z"/>
<path d="M4415 420 l-30 -8 33 -1 c17 0 32 4 32 9 0 6 -1 9 -2 9 -2 -1 -16 -5
-33 -9z"/>
<path d="M2688 403 c6 -2 18 -2 25 0 6 3 1 5 -13 5 -14 0 -19 -2 -12 -5z"/>
<path d="M3118 403 c7 -3 16 -2 19 1 4 3 -2 6 -13 5 -11 0 -14 -3 -6 -6z"/>
<path d="M4348 403 c7 -3 16 -2 19 1 4 3 -2 6 -13 5 -11 0 -14 -3 -6 -6z"/>
<path d="M4268 393 c7 -3 16 -2 19 1 4 3 -2 6 -13 5 -11 0 -14 -3 -6 -6z"/>
<path d="M4153 383 c9 -2 23 -2 30 0 6 3 -1 5 -18 5 -16 0 -22 -2 -12 -5z"/>
<path d="M3358 363 c7 -3 16 -2 19 1 4 3 -2 6 -13 5 -11 0 -14 -3 -6 -6z"/>
<path d="M3018 353 c7 -3 16 -2 19 1 4 3 -2 6 -13 5 -11 0 -14 -3 -6 -6z"/>
<path d="M3080 300 c0 -5 9 -10 21 -10 11 0 17 5 14 10 -3 6 -13 10 -21 10 -8
0 -14 -4 -14 -10z"/>
<path d="M4097 304 c-3 -3 -3 -13 0 -22 4 -13 3 -14 -5 -3 -5 7 -14 12 -20 10
-7 -3 -4 -12 6 -25 15 -18 22 -20 52 -12 29 8 32 11 17 19 -9 6 -17 17 -17 24
0 15 -21 20 -33 9z"/>
<path d="M3927 291 c-21 -3 -38 -9 -37 -13 0 -5 0 -15 0 -23 0 -9 6 -12 15 -9
8 4 15 12 15 20 0 10 13 14 46 14 27 0 43 4 39 10 -7 11 -18 11 -78 1z"/>
<path d="M4203 280 c-1 -13 4 -20 17 -20 13 0 17 5 13 20 -3 11 -11 20 -17 20
-6 0 -12 -9 -13 -20z"/>
<path d="M3570 280 c-21 -5 -18 -7 20 -12 24 -4 51 -2 60 3 12 8 11 10 -6 6
-12 -2 -27 -1 -35 3 -8 4 -25 4 -39 0z"/>
<path d="M3750 280 c-11 -7 -4 -10 25 -9 31 0 36 2 20 9 -26 11 -28 11 -45 0z"/>
<path d="M3438 253 c7 -3 16 -2 19 1 4 3 -2 6 -13 5 -11 0 -14 -3 -6 -6z"/>
</g>
</svg>
